<?xml version="1.0" encoding="UTF-8"?>
<svg version="1.1" xmlns="http://www.w3.org/2000/svg" width="512" height="185">
<path d="M0 0 C0.495 1.485 0.495 1.485 1 3 C-1.19726562 4.61132812 -1.19726562 4.61132812 -3.39453125 6.22265625 C-8.08105837 11.41090404 -8.44418496 17.32195221 -8.43237305 23.96459961 C-8.4425647 24.83368958 -8.45275635 25.70277954 -8.46325684 26.59820557 C-8.49327239 29.44965152 -8.50263524 32.30076089 -8.51171875 35.15234375 C-8.52857392 37.13775234 -8.54672529 39.12315032 -8.56611633 41.10853577 C-8.61353137 46.31821373 -8.64339572 51.52784863 -8.66955566 56.7376709 C-8.69940405 62.06022645 -8.7459197 67.38263378 -8.79101562 72.70507812 C-8.8769521 83.13664108 -8.94434035 93.56823462 -9 104 C-17.22014533 102.77509755 -22.52622074 98.32198614 -27.6875 91.8984375 C-31.43432125 86.47892819 -33.00615436 81.5349853 -33.5625 75 C-34.32234765 69.85641589 -35.70985283 67.75570984 -39.75 64.5 C-41.26538677 63.40644253 -42.78154079 62.31376417 -44.31152344 61.24072266 C-47.48546691 58.90845245 -50.41025874 56.27673879 -53.375 53.6875 C-54.52745253 52.69002587 -55.68104941 51.69387194 -56.8359375 50.69921875 C-57.32626465 50.27471436 -57.8165918 49.85020996 -58.32177734 49.4128418 C-60.51478079 47.56662257 -62.75662741 45.78446848 -65 44 C-65.07437576 49.44430582 -65.12870866 54.88831329 -65.16479492 60.33300781 C-65.17984471 62.18364619 -65.20028933 64.03424911 -65.22631836 65.88476562 C-65.2628698 68.55087045 -65.27976454 71.21650208 -65.29296875 73.8828125 C-65.30845261 74.70492218 -65.32393646 75.52703186 -65.33988953 76.37405396 C-65.34133135 81.33948779 -64.72307721 84.68123955 -62 89 C-60.24853463 90.63857855 -60.24853463 90.63857855 -58.3125 91.75 C-56.42578125 92.921875 -56.42578125 92.921875 -55 94 C-55 94.66 -55 95.32 -55 96 C-70.18 96 -85.36 96 -101 96 C-99.66195697 91.98587091 -97.47584633 91.26994046 -94 89 C-91.74443782 85.61665674 -91.74367018 84.44027069 -91.7253418 80.47460938 C-91.71580978 79.34333618 -91.70627777 78.21206299 -91.69645691 77.04650879 C-91.69736832 75.82459839 -91.69827972 74.60268799 -91.69921875 73.34375 C-91.69493362 72.0899353 -91.6906485 70.83612061 -91.68623352 69.54431152 C-91.68048593 66.89121516 -91.67905991 64.23850733 -91.68432617 61.58544922 C-91.69012533 58.18561784 -91.67317806 54.78633045 -91.6499815 51.38658905 C-91.63171063 48.14314656 -91.63542917 44.89973472 -91.63671875 41.65625 C-91.627509 40.4343396 -91.61829926 39.2124292 -91.60881042 37.95349121 C-91.61815361 36.25658142 -91.61815361 36.25658142 -91.62768555 34.52539062 C-91.62705612 33.5285022 -91.6264267 32.53161377 -91.6257782 31.5045166 C-91.80175639 28.97352701 -91.80175639 28.97352701 -93.3240509 27.22888184 C-95.69099673 25.49332988 -98.20113677 24.80856049 -101 24 C-101 23.01 -101 22.02 -101 21 C-97.9398596 20.46462128 -94.87666284 19.9493113 -91.8125 19.4375 C-90.94818359 19.28603516 -90.08386719 19.13457031 -89.19335938 18.97851562 C-80.57142691 17.55804399 -80.57142691 17.55804399 -77 19 C-74.70769097 20.73080909 -72.61963584 22.45483136 -70.5 24.375 C-69.25432777 25.47313458 -68.00822421 26.57078006 -66.76171875 27.66796875 C-66.13442871 28.22532715 -65.50713867 28.78268555 -64.86083984 29.35693359 C-62.04635237 31.84204258 -59.18278633 34.26727664 -56.3125 36.6875 C-55.78213135 37.13593262 -55.2517627 37.58436523 -54.70532227 38.04638672 C-48.24626471 43.49761285 -41.77609144 48.94537312 -35 54 C-34.97528812 48.92798214 -34.95713436 43.85599929 -34.94506836 38.78393555 C-34.94003842 37.0583434 -34.93321374 35.33275552 -34.92456055 33.60717773 C-34.91243639 31.1274307 -34.90675831 28.64774 -34.90234375 26.16796875 C-34.89718246 25.39599655 -34.89202118 24.62402435 -34.88670349 23.82865906 C-34.88636682 20.6169772 -34.97673422 18.06979734 -36 15 C-37.155 14.67 -38.31 14.34 -39.5 14 C-40.655 13.67 -41.81 13.34 -43 13 C-43.495 11.515 -43.495 11.515 -44 10 C-39.98429178 9.05628921 -35.96815772 8.11441638 -31.95166016 7.17407227 C-30.59217362 6.85553751 -29.23279427 6.53654484 -27.87353516 6.21704102 C-18.60332024 4.03843758 -9.31945968 1.95964852 0 0 Z " fill="#000000" transform="translate(511,40)"/>
<path d="M0 0 C3.45955556 1.49173497 6.88359331 2.28576379 10.5546875 3.1015625 C12.25581998 4.80269498 11.68481131 6.98499216 11.6875 9.30859375 C11.68878906 10.37013672 11.69007812 11.43167969 11.69140625 12.52539062 C11.68753906 13.64365234 11.68367188 14.76191406 11.6796875 15.9140625 C11.68355469 17.02072266 11.68742187 18.12738281 11.69140625 19.26757812 C11.69011719 20.33298828 11.68882813 21.39839844 11.6875 22.49609375 C11.68637207 23.47425049 11.68524414 24.45240723 11.68408203 25.46020508 C11.56787705 27.83232142 11.23055353 29.83402191 10.5546875 32.1015625 C9.8946875 32.1015625 9.2346875 32.1015625 8.5546875 32.1015625 C8.20277344 31.12316406 7.85085937 30.14476562 7.48828125 29.13671875 C3.32395229 17.9259445 -1.18679506 8.58397099 -12.4453125 3.1015625 C-18.93875816 0.93708061 -24.27812343 1.81203477 -30.28125 4.79296875 C-39.10450859 10.1283327 -43.53234151 18.8520445 -46.484375 28.49609375 C-50.21396672 44.02444059 -49.61757925 60.68603143 -41.5078125 74.7890625 C-36.82613338 81.77646859 -31.49120065 86.41959978 -23.4453125 89.1015625 C-22.05091586 89.16821626 -20.65361375 89.18694449 -19.2578125 89.1640625 C-17.9996875 89.1434375 -16.7415625 89.1228125 -15.4453125 89.1015625 C-13.28061107 83.8186602 -13.14325144 79.14864215 -13.1953125 73.5390625 C-13.18757813 72.70181641 -13.17984375 71.86457031 -13.171875 71.00195312 C-13.18561782 66.66265773 -13.21260748 62.95537347 -15.4453125 59.1015625 C-19.87310569 56.14970037 -24.52866427 54.10835769 -29.4453125 52.1015625 C-29.4453125 51.4415625 -29.4453125 50.7815625 -29.4453125 50.1015625 C-12.2853125 50.1015625 4.8746875 50.1015625 22.5546875 50.1015625 C21.5546875 53.1015625 21.5546875 53.1015625 18.6171875 54.6640625 C17.6065625 55.1384375 16.5959375 55.6128125 15.5546875 56.1015625 C13.30859652 57.92119165 13.30859652 57.92119165 13.33105469 60.54418945 C13.33782227 61.54925537 13.34458984 62.55432129 13.3515625 63.58984375 C13.33996094 64.68876953 13.32835938 65.78769531 13.31640625 66.91992188 C13.30863305 69.23763034 13.31628823 71.55544508 13.33984375 73.87304688 C13.21455755 82.11784284 13.21455755 82.11784284 11.33691406 84.91699219 C9.8046875 86.23046875 9.8046875 86.23046875 6.5546875 88.1015625 C5.75546875 88.58882813 4.95625 89.07609375 4.1328125 89.578125 C-4.03756612 93.60847956 -12.27537398 96.58876989 -21.4453125 97.1015625 C-23.1159375 97.19824219 -23.1159375 97.19824219 -24.8203125 97.296875 C-38.9107953 97.7299841 -51.00681912 94.23866485 -61.8515625 85.06640625 C-72.7844364 74.73484042 -78.41799082 62.3960541 -78.91796875 47.35595703 C-79.08117376 30.91596685 -74.72191671 17.28050924 -63.49609375 4.984375 C-44.4143439 -12.53448867 -21.83745256 -10.31740512 0 0 Z " fill="#000000" transform="translate(78.4453125,42.8984375)"/>
<path d="M0 0 C9.57 0 19.14 0 29 0 C28 3 28 3 25 5 C23.75325666 8.74023002 23.85447245 12.2316086 23.875 16.125 C23.87113281 16.86621094 23.86726563 17.60742188 23.86328125 18.37109375 C23.53253342 21.98229969 23.53253342 21.98229969 25 25 C26.63256758 25.15714654 28.27135338 25.25085414 29.91015625 25.31640625 C31.39418945 25.37924805 31.39418945 25.37924805 32.90820312 25.44335938 C33.94912109 25.48267578 34.99003906 25.52199219 36.0625 25.5625 C37.10728516 25.60568359 38.15207031 25.64886719 39.22851562 25.69335938 C41.81886884 25.79981225 44.40932186 25.9018276 47 26 C47.13530844 22.93601549 47.2342407 19.87802874 47.3125 16.8125 C47.35439453 15.94818359 47.39628906 15.08386719 47.43945312 14.19335938 C47.55580517 8.61715249 47.55580517 8.61715249 44.48046875 4.01171875 C43.66191406 3.34785156 42.84335937 2.68398437 42 2 C42 1.34 42 0.68 42 0 C51.57 0 61.14 0 71 0 C70 3 70 3 67.97084045 4.37857056 C65.7955806 5.83101001 65.7955806 5.83101001 65.4853363 8.26327515 C65.47913773 9.14754181 65.47293915 10.03180847 65.46655273 10.94287109 C65.4507164 11.94756439 65.43488007 12.95225769 65.41856384 13.98739624 C65.42600365 15.61398666 65.42600365 15.61398666 65.43359375 17.2734375 C65.42739517 18.38933258 65.42119659 19.50522766 65.41481018 20.65493774 C65.40770175 23.01701992 65.41090373 25.3791521 65.42358398 27.74121094 C65.43742133 31.35445654 65.40342443 34.96509942 65.36523438 38.578125 C65.36428294 40.87239647 65.36614329 43.16667118 65.37109375 45.4609375 C65.35783554 46.54128265 65.34457733 47.62162781 65.33091736 48.73471069 C65.24347906 54.00600606 65.24347906 54.00600606 67.15530396 58.75421143 C68.65745145 60.26054359 68.65745145 60.26054359 71 62 C71 62.66 71 63.32 71 64 C61.43 64 51.86 64 42 64 C43 61 43 61 45.04296875 59.35546875 C47.95503838 55.85052267 47.47796875 52.72132279 47.3125 48.3125 C47.30283203 47.52810547 47.29316406 46.74371094 47.28320312 45.93554688 C47.54491217 42.15965587 47.54491217 42.15965587 46 39 C44.45044441 38.90100477 42.89646327 38.86920476 41.34375 38.8671875 C40.40402344 38.86589844 39.46429688 38.86460938 38.49609375 38.86328125 C37.50738281 38.86714844 36.51867187 38.87101562 35.5 38.875 C34.51128906 38.87113281 33.52257812 38.86726563 32.50390625 38.86328125 C31.09431641 38.86521484 31.09431641 38.86521484 29.65625 38.8671875 C28.35397461 38.86887939 28.35397461 38.86887939 27.02539062 38.87060547 C25.00395846 38.7758463 25.00395846 38.7758463 24 40 C23.89953761 42.6149768 23.86127449 45.19779089 23.875 47.8125 C23.87113281 48.53759766 23.86726563 49.26269531 23.86328125 50.00976562 C23.86962109 53.47448641 23.9054164 56.6901877 25 60 C26.32 60.33 27.64 60.66 29 61 C29 61.99 29 62.98 29 64 C28.12859375 64.17015625 27.2571875 64.3403125 26.359375 64.515625 C19.20149515 65.97199017 12.48007675 67.69045701 5.62109375 70.23046875 C2.94092672 71.01734342 0.77625283 71.14559011 -2 71 C-0.880462 68.48103951 0.31981552 66.60265345 2.0625 64.4375 C4.66670324 61.16124431 5.1283644 58.5869814 5.31640625 54.52734375 C5.35846191 53.63668213 5.40051758 52.74602051 5.44384766 51.82836914 C5.50258057 50.39738892 5.50258057 50.39738892 5.5625 48.9375 C5.6042334 47.95322021 5.6459668 46.96894043 5.68896484 45.95483398 C6.2447683 31.89981232 6.15809524 18.02122454 5 4 C2.525 3.01 2.525 3.01 0 2 C0 1.34 0 0.68 0 0 Z " fill="#000000" transform="translate(286,72)"/>
<path d="M0 0 C14.59098 -2.35813818 14.59098 -2.35813818 19.96728516 1.36083984 C23.74367485 5.08100538 26.66775113 9.42369055 29.5625 13.84472656 C31.70356205 17.05486511 34.10331731 20.04175662 36.5 23.0625 C39.76141338 27.3123897 42.90172033 31.6307711 46 36 C46.12383963 31.80088403 46.21444607 27.60274184 46.2746582 23.40234375 C46.29976347 21.97442099 46.33385587 20.54662625 46.37719727 19.11914062 C46.43803678 17.06348082 46.46624551 15.00952247 46.48828125 12.953125 C46.51446533 11.71723633 46.54064941 10.48134766 46.56762695 9.20800781 C46.3015606 5.80376226 46.3015606 5.80376226 43.46948242 3.69042969 C42.65455322 3.13258789 41.83962402 2.57474609 41 2 C41 1.34 41 0.68 41 0 C50.57 0 60.14 0 70 0 C69 3 69 3 66.96850586 4.50146484 C63.76628205 8.56590221 64.44973451 12.95347557 64.50390625 17.9765625 C64.5017234 19.59720108 64.5017234 19.59720108 64.49949646 21.25057983 C64.50115648 23.53866264 64.51272912 25.82675649 64.53344727 28.11474609 C64.56222118 31.59131251 64.55409309 35.06633624 64.54101562 38.54296875 C64.547259 40.77084066 64.55565459 42.99870778 64.56640625 45.2265625 C64.56347061 46.25609039 64.56053497 47.28561829 64.55751038 48.34634399 C64.64381667 55.06466736 65.83765115 60.66451307 68 67 C68.34726056 68.32977404 68.68533808 69.66213724 69 71 C62.59107555 70.83977689 59.33442927 67.27255268 55 63 C52.65151152 60.32900782 50.50545486 57.53408207 48.375 54.6875 C47.16689505 53.1039924 45.95855439 51.52066461 44.75 49.9375 C44.13640625 49.12796875 43.5228125 48.3184375 42.890625 47.484375 C39.75176375 43.35975567 36.56150479 39.27534488 33.375 35.1875 C32.79540527 34.44137451 32.21581055 33.69524902 31.61865234 32.92651367 C31.07160645 32.22244385 30.52456055 31.51837402 29.9609375 30.79296875 C29.24623291 29.87294067 29.24623291 29.87294067 28.51708984 28.93432617 C26.69407966 26.60994418 24.84818723 24.30439164 23 22 C22.92563245 26.6081187 22.87129606 31.21588514 22.83520508 35.82446289 C22.82015378 37.39093107 22.79970793 38.95735736 22.77368164 40.52368164 C22.73713567 42.78021606 22.72023739 45.03619153 22.70703125 47.29296875 C22.69154739 47.98899704 22.67606354 48.68502533 22.66011047 49.40214539 C22.65860385 53.79255982 23.29164179 56.52235238 26 60 C26.99 60.66 27.98 61.32 29 62 C29 62.66 29 63.32 29 64 C19.43 64 9.86 64 0 64 C0 63.01 0 62.02 0 61 C1.98 60.505 1.98 60.505 4 60 C4.73219639 56.71045303 5.12903363 53.65702077 5.14526367 50.2890625 C5.15164352 49.38462402 5.15802338 48.48018555 5.16459656 47.54833984 C5.16570938 46.5836377 5.1668222 45.61893555 5.16796875 44.625 C5.17129715 43.62291504 5.17462555 42.62083008 5.17805481 41.58837891 C5.18310824 39.47363747 5.18546363 37.35888809 5.18530273 35.24414062 C5.18749215 32.01158542 5.20567282 28.77937001 5.22460938 25.546875 C5.22754304 23.4895845 5.22952802 21.43229238 5.23046875 19.375 C5.23765427 18.41029785 5.24483978 17.4455957 5.25224304 16.45166016 C5.30029465 9.96772483 5.30029465 9.96772483 3 4 C2.01 3.34 1.02 2.68 0 2 C0 1.34 0 0.68 0 0 Z " fill="#000000" transform="translate(155,72)"/>
<path d="M0 0 C1.258125 0.05542969 2.51625 0.11085937 3.8125 0.16796875 C13.62849048 0.86447896 13.62849048 0.86447896 16.9296875 3.59765625 C18.26516447 5.68382059 19.13698923 7.6801637 20 10 C20.38414062 10.77601562 20.76828125 11.55203125 21.1640625 12.3515625 C23.09959868 16.28846941 24.57871765 19.5149382 24 24 C19.03996869 23.54908806 15.55740397 21.35248439 12 18 C10.61032661 15.98615127 9.39813237 13.91475175 8.16796875 11.80078125 C6.1012767 8.614343 3.73962914 7.42588431 0.1171875 6.5390625 C-4.40634378 5.76507426 -7.74649255 6.0288624 -12 8 C-13.44430855 10.88861709 -13.37688506 12.79647701 -13 16 C-8.11290233 22.40378315 -0.29059625 26.83422141 6.359375 31.234375 C14.91817353 36.92384923 22.7036001 42.34828485 25.56640625 52.71484375 C27.09619564 60.77724728 26.09071597 68.31486706 21.5234375 75.23828125 C17.62981078 80.10086987 14.05396047 82.50401539 8 84 C4.73490266 84.34490227 1.52935372 84.33236995 -1.75 84.25 C-2.58660156 84.24484375 -3.42320312 84.2396875 -4.28515625 84.234375 C-8.05808884 84.18623551 -11.34209475 83.93910398 -15 83 C-17.08234592 82.93256652 -19.16668557 82.91485528 -21.25 82.9375 C-22.86648437 82.95103516 -22.86648437 82.95103516 -24.515625 82.96484375 C-25.74539062 82.98224609 -25.74539062 82.98224609 -27 83 C-31.25427931 76.00102435 -32.15831187 70.93469095 -32.0625 62.6875 C-32.05798828 61.94693359 -32.05347656 61.20636719 -32.04882812 60.44335938 C-32.03712175 58.62887101 -32.01918898 56.81442466 -32 55 C-31.01 55 -30.02 55 -29 55 C-27.421875 57.4140625 -27.421875 57.4140625 -25.75 60.625 C-21.63119647 67.98681937 -17.0127551 72.95515306 -9 76 C-4.38490181 77.07463478 -1.0669589 77.38798505 3.4375 75.75 C6.20936775 74.09141655 6.20936775 74.09141655 8 71 C8.68247994 66.9166576 8.68247994 66.9166576 8 63 C3.19280726 57.40584196 -3.59424529 53.36665447 -9.6875 49.3125 C-25.96808166 38.4038768 -25.96808166 38.4038768 -29 29 C-30.02921795 22.21791455 -30.15527629 15.95891277 -26.5625 9.9375 C-19.67868426 1.15695593 -10.49580417 -0.46856269 0 0 Z " fill="#000000" transform="translate(259,58)"/>
<path d="M0 0 C4.43349952 -0.16730187 8.34943976 0.00197583 12.6875 0.9375 C20.62531436 2.43484987 28.63635519 2.71186135 36.6875 3.125 C38.27542535 3.21160526 39.86331648 3.29884032 41.45117188 3.38671875 C45.30042579 3.59839912 49.15004047 3.80158465 53 4 C53.50252791 5.73382515 53.99706422 7.4699677 54.48828125 9.20703125 C54.76454346 10.17358643 55.04080566 11.1401416 55.32543945 12.13598633 C56.21139813 15.89754305 56.21765137 19.15482586 56 23 C55.01 23.495 55.01 23.495 54 24 C53.72027344 23.39671875 53.44054687 22.7934375 53.15234375 22.171875 C50.96233013 17.80593144 48.94917533 13.8337925 44.37890625 11.57421875 C38.75490681 10.21670164 32.74271284 10.73392836 27 11 C25.3501993 14.29960141 25.61741639 17.99127884 25.4375 21.625 C25.39431641 22.42679688 25.35113281 23.22859375 25.30664062 24.0546875 C25.20048543 26.0362511 25.09973145 28.01810271 25 30 C26.00160156 29.71125 27.00320312 29.4225 28.03515625 29.125 C29.37747197 28.74952707 30.71992749 28.37455369 32.0625 28 C32.71927734 27.80921875 33.37605469 27.6184375 34.05273438 27.421875 C38.90195688 26.08415845 44.29174768 24.64587384 49 27 C49.0825 28.093125 49.165 29.18625 49.25 30.3125 C49.61657856 34.23688183 49.61657856 34.23688183 53 36.1875 C53.99 36.785625 54.98 37.38375 56 38 C56.6875 40.11328125 56.6875 40.11328125 57 42 C55.94683594 42.04898438 54.89367187 42.09796875 53.80859375 42.1484375 C44.1132051 42.63789807 34.60225813 43.56036014 25 45 C25.14026283 47.31284456 25.28735558 49.62527591 25.4375 51.9375 C25.51871094 53.22527344 25.59992188 54.51304688 25.68359375 55.83984375 C25.64919188 58.86023957 25.64919188 58.86023957 27 60 C29.88983049 60.18173161 32.73284479 60.27834069 35.625 60.3125 C36.42035156 60.34150391 37.21570313 60.37050781 38.03515625 60.40039062 C43.87826357 60.46275548 47.26270942 59.48277479 52 56 C53.82887372 53.7298041 53.82887372 53.7298041 54.9375 51.25 C55.33839844 50.45078125 55.73929688 49.6515625 56.15234375 48.828125 C56.43207031 48.22484375 56.71179688 47.6215625 57 47 C57.66 47 58.32 47 59 47 C59.27389023 52.47780463 58.88417924 57.00832478 57.48828125 62.328125 C57.21153564 63.39450195 56.93479004 64.46087891 56.6496582 65.55957031 C56.32807739 66.76758301 56.32807739 66.76758301 56 68 C54.23124512 68.029729 54.23124512 68.029729 52.42675781 68.06005859 C47.99833949 68.13686681 43.57021805 68.22545978 39.14208984 68.31738281 C37.2355745 68.35536505 35.32899497 68.39026791 33.42236328 68.421875 C19.31451039 68.61372777 19.31451039 68.61372777 5.36621094 70.58447266 C2.86660891 71.02342464 0.53265281 71.06950386 -2 71 C-1.60167969 70.55269531 -1.20335938 70.10539062 -0.79296875 69.64453125 C4.93018629 63.49389536 4.93018629 63.49389536 7.1875 55.6875 C7.125625 54.800625 7.06375 53.91375 7 53 C5.88625 53.66 4.7725 54.32 3.625 55 C0.25 57 0.25 57 -2 57 C-0.75692861 51.61335732 2.01624401 48.14022562 5.44140625 43.953125 C9.38233911 39.01461264 7.99556766 32.88871687 7.81298828 26.87915039 C7.75054987 24.70663259 7.70891783 22.53434274 7.66796875 20.36132812 C7.62889167 18.97392147 7.58856692 17.58654929 7.546875 16.19921875 C7.51432617 14.93940186 7.48177734 13.67958496 7.44824219 12.3815918 C6.71305178 6.83522889 4.00340211 3.72730541 0 0 Z " fill="#000000" transform="translate(95,68)"/>
<path d="M0 0 C12.54 0 25.08 0 38 0 C38 0.66 38 1.32 38 2 C37.43410156 2.27714844 36.86820312 2.55429688 36.28515625 2.83984375 C35.18494141 3.38318359 35.18494141 3.38318359 34.0625 3.9375 C33.33160156 4.29714844 32.60070312 4.65679687 31.84765625 5.02734375 C30.03750973 5.86371827 30.03750973 5.86371827 29 7 C28.88592811 8.54884671 28.84043012 10.10281785 28.82299805 11.65576172 C28.81016281 12.64704071 28.79732758 13.6383197 28.78410339 14.65963745 C28.77671646 15.73875397 28.76932953 16.81787048 28.76171875 17.9296875 C28.753647 19.03095978 28.74557526 20.13223206 28.73725891 21.26687622 C28.72339978 23.60221777 28.71268585 25.93757974 28.70483398 28.27294922 C28.68760622 31.8529271 28.64373362 35.43198547 28.59960938 39.01171875 C28.58948446 41.27603485 28.58096773 43.54035882 28.57421875 45.8046875 C28.55671066 46.87975555 28.53920258 47.95482361 28.52116394 49.06246948 C28.52555229 50.55884445 28.52555229 50.55884445 28.5300293 52.08544922 C28.52416306 52.96401581 28.51829681 53.8425824 28.51225281 54.74777222 C28.80878029 57.15179826 28.80878029 57.15179826 30.85749817 58.73294067 C33.1690562 60.09997856 35.47646841 61.0887247 38 62 C38 62.66 38 63.32 38 64 C25.46 64 12.92 64 0 64 C0.33 63.01 0.66 62.02 1 61 C3.31808364 59.96514123 5.65175298 58.9644586 8 58 C9.19393619 55.61212762 9.14561644 54.0961943 9.17700195 51.43017578 C9.18983719 50.48224152 9.20267242 49.53430725 9.21589661 48.55764771 C9.22328354 47.53057709 9.23067047 46.50350647 9.23828125 45.4453125 C9.246353 44.39221893 9.25442474 43.33912537 9.26274109 42.25411987 C9.27658695 40.02310842 9.28730685 37.79207573 9.29516602 35.56103516 C9.31239531 32.14575222 9.35627966 28.73143299 9.40039062 25.31640625 C9.41051586 23.1510488 9.41903249 20.98568311 9.42578125 18.8203125 C9.44328934 17.79729034 9.46079742 16.77426819 9.47883606 15.72024536 C9.55390179 10.1987268 9.55390179 10.1987268 7.14526367 5.40185547 C4.83642806 3.89311141 2.61434784 2.87144928 0 2 C0 1.34 0 0.68 0 0 Z " fill="#000000" transform="translate(366,72)"/>
<path d="M0 0 C2.25 2.125 2.25 2.125 4 5 C6.61647498 9.22012094 8.51594988 11.75797494 13 14 C12.67 15.65 12.34 17.3 12 19 C11.08935791 19.13051758 10.17871582 19.26103516 9.24047852 19.39550781 C-14.56730642 22.72615018 -14.56730642 22.72615018 -38 28 C-37.27731765 31.2985139 -37.27731765 31.2985139 -33.9375 32.6875 C-32.968125 33.120625 -31.99875 33.55375 -31 34 C-31 34.66 -31 35.32 -31 36 C-40.87693212 35.66575526 -49.73259846 34.26740154 -57 27 C-57.625 24.875 -57.625 24.875 -58 23 C-47.8973723 12.36565506 -34.15411074 7.77803287 -20.5 3.5 C-19.39027832 3.14945557 -18.28055664 2.79891113 -17.13720703 2.43774414 C-11.26168865 0.67562139 -6.14064648 -0.64262579 0 0 Z " fill="#000000" transform="translate(215,31)"/>
<path d="M0 0 C5.14218856 0.68219464 10.03032607 2.26875373 14.96411133 3.8269043 C16.11379395 4.1863916 17.26347656 4.54587891 18.44799805 4.91625977 C30.88953411 8.92948942 42.34324405 13.89284823 52.46411133 22.3269043 C51.61793829 26.36973102 50.6392605 28.1631779 47.58911133 31.0144043 C41.46576568 35.00229747 33.69948521 36.57868471 26.46411133 36.3269043 C26.46411133 35.3369043 26.46411133 34.3469043 26.46411133 33.3269043 C27.26848633 33.0587793 28.07286133 32.7906543 28.90161133 32.5144043 C30.17004883 31.9265918 30.17004883 31.9265918 31.46411133 31.3269043 C31.95911133 29.8419043 31.95911133 29.8419043 32.46411133 28.3269043 C21.20345314 25.27011118 10.01711172 23.16724623 -1.53588867 21.5769043 C-3.10110239 21.3550195 -4.66620738 21.1323663 -6.23120117 20.90893555 C-9.99824355 20.37277967 -13.76657669 19.84685367 -17.53588867 19.3269043 C-18.10620117 17.41674805 -18.10620117 17.41674805 -18.53588867 15.3269043 C-17.41088867 13.8894043 -17.41088867 13.8894043 -15.53588867 12.3269043 C-12.03102011 9.0065025 -9.51157395 5.90238413 -7.23510742 1.68237305 C-4.91547875 -0.16799741 -2.8951193 -0.12267176 0 0 Z " fill="#000000" transform="translate(302.535888671875,30.673095703125)"/>
<path d="M0 0 C0.99 0.33 1.98 0.66 3 1 C4.24609375 3.765625 4.24609375 3.765625 5.4375 7.25 C7.43880931 13.08880341 9.20525242 17.51228705 14.83984375 20.51171875 C15.86207031 20.89972656 16.88429688 21.28773437 17.9375 21.6875 C19.46697266 22.28111328 19.46697266 22.28111328 21.02734375 22.88671875 C22.00832031 23.25410156 22.98929687 23.62148438 24 24 C25.66806779 24.66315314 27.33524306 25.32857869 29 26 C28.505 27.485 28.505 27.485 28 29 C25.015625 30.24609375 25.015625 30.24609375 21.25 31.4375 C15.1593211 33.36791392 10.59923218 34.99575764 7.48828125 40.83984375 C7.10027344 41.86207031 6.71226562 42.88429687 6.3125 43.9375 C5.91675781 44.95714844 5.52101563 45.97679687 5.11328125 47.02734375 C4.74589844 48.00832031 4.37851562 48.98929688 4 50 C3.33684686 51.66806779 2.67142131 53.33524306 2 55 C1.34 55 0.68 55 0 55 C-0.58007812 53.46279297 -0.58007812 53.46279297 -1.171875 51.89453125 C-1.69744784 50.53367301 -2.22351584 49.17300593 -2.75 47.8125 C-3.00265625 47.13896484 -3.2553125 46.46542969 -3.515625 45.77148438 C-5.82810581 39.84575231 -8.0898737 35.66731634 -14.109375 32.98046875 C-15.65044248 32.36799321 -17.19758704 31.77062029 -18.75 31.1875 C-19.54277344 30.87619141 -20.33554688 30.56488281 -21.15234375 30.24414062 C-23.09644613 29.48289572 -25.04756885 28.73962184 -27 28 C-27 27.34 -27 26.68 -27 26 C-25.97519531 25.61328125 -24.95039063 25.2265625 -23.89453125 24.828125 C-22.53367301 24.30255216 -21.17300593 23.77648416 -19.8125 23.25 C-19.13896484 22.99734375 -18.46542969 22.7446875 -17.77148438 22.484375 C-12.44783539 20.40685344 -8.25583506 18.38835816 -5.48828125 13.125 C-5.10027344 12.09375 -4.71226562 11.0625 -4.3125 10 C-2.99936465 6.57814891 -1.70851367 3.24539582 0 0 Z " fill="#000000" transform="translate(255,0)"/>
<path d="M0 0 C4.95 0 9.9 0 15 0 C16.98 3.96 18.96 7.92 21 12 C22.98 8.04 24.96 4.08 27 0 C31.95 0 36.9 0 42 0 C42 0.66 42 1.32 42 2 C41.01 2.66 40.02 3.32 39 4 C38.31894753 7.26865592 38.49070128 10.60623291 38.5 13.9375 C38.45746094 15.31711914 38.45746094 15.31711914 38.4140625 16.72460938 C38.40667819 19.25558131 38.45380236 21.52764564 39 24 C41.36262138 26.15195812 41.36262138 26.15195812 44 27 C44 27.33 44 27.66 44 28 C37.4 28 30.8 28 24 28 C24 27.34 24 26.68 24 26 C24.66 25.67 25.32 25.34 26 25 C26 21.37 26 17.74 26 14 C23.69 18.62 21.38 23.24 19 28 C18.01 28 17.02 28 16 28 C13.69 22.72 11.38 17.44 9 12 C8.938125 13.8975 8.87625 15.795 8.8125 17.75 C8.77769531 18.81734375 8.74289063 19.8846875 8.70703125 20.984375 C8.77759692 24.42545204 8.77759692 24.42545204 12 28 C7.38 28 2.76 28 -2 28 C-0.74458443 25.48916886 0.50063488 25.12874554 3 24 C3.08685287 20.70849875 3.14033895 17.4172904 3.1875 14.125 C3.21263672 13.18785156 3.23777344 12.25070313 3.26367188 11.28515625 C3.27333984 10.38925781 3.28300781 9.49335938 3.29296875 8.5703125 C3.3086792 7.74289551 3.32438965 6.91547852 3.34057617 6.06298828 C3.17199097 5.04180908 3.17199097 5.04180908 3 4 C2.01 3.34 1.02 2.68 0 2 C0 1.34 0 0.68 0 0 Z " fill="#000000" transform="translate(145,156)"/>
<path d="M0 0 C3.89569135 -0.08732726 7.79112982 -0.14050185 11.6875 -0.1875 C12.79029297 -0.21263672 13.89308594 -0.23777344 15.02929688 -0.26367188 C16.09599609 -0.27333984 17.16269531 -0.28300781 18.26171875 -0.29296875 C19.24100342 -0.3086792 20.22028809 -0.32438965 21.22924805 -0.34057617 C24.51820518 0.06369691 26.35296772 1.03243532 29 3 C30.5 5.875 30.5 5.875 31 9 C29.47043421 12.65396271 27.55496137 15.22251931 24 17 C20.98255102 17.240143 18.01970898 17.17421398 15 17 C15.10407917 20.40080577 15.10407917 20.40080577 16 24 C18.44309577 25.91744593 18.44309577 25.91744593 21 27 C21 27.33 21 27.66 21 28 C13.74 28 6.48 28 -1 28 C0.65 26.35 2.3 24.7 4 23 C4.73090873 20.89411512 4.73090873 20.89411512 4.62890625 18.75 C4.63083984 17.9765625 4.63277344 17.203125 4.63476562 16.40625 C4.61091797 15.6121875 4.58707031 14.818125 4.5625 14 C4.57893555 12.80890625 4.57893555 12.80890625 4.59570312 11.59375 C4.53169866 6.47339267 3.79578399 3.74295996 0 0 Z M15 3 C15 6.63 15 10.26 15 14 C16.32 13.34 17.64 12.68 19 12 C20.08223366 9.08995097 20.08223366 9.08995097 20 6 C18.81104764 4.05967596 18.81104764 4.05967596 17 3 C16.34 3 15.68 3 15 3 Z " fill="#000000" transform="translate(210,156)"/>
<path d="M0 0 C3.3 0 6.6 0 10 0 C10.44730469 0.96679688 10.89460938 1.93359375 11.35546875 2.9296875 C12.92506953 6.31502407 14.50581091 9.69500565 16.09375 13.07177734 C16.87801308 14.74044917 17.65813898 16.41106427 18.4375 18.08203125 C18.85 18.94183594 19.2625 19.80164063 19.6875 20.6875 C20.04199219 21.43386719 20.39648438 22.18023437 20.76171875 22.94921875 C22.20500239 25.52476473 22.20500239 25.52476473 26 29 C19.4 29 12.8 29 6 29 C6.33 28.34 6.66 27.68 7 27 C7.99 27 8.98 27 10 27 C9.34 25.02 8.68 23.04 8 21 C4.37 20.67 0.74 20.34 -3 20 C-3.33 21.98 -3.66 23.96 -4 26 C-3.01 26.33 -2.02 26.66 -1 27 C-1 27.66 -1 28.32 -1 29 C-5.29 29 -9.58 29 -14 29 C-13.10023438 28.04609375 -12.20046875 27.0921875 -11.2734375 26.109375 C-7.65368223 21.88313516 -5.6645393 17.38456004 -3.625 12.25 C-3.09326172 10.97576172 -3.09326172 10.97576172 -2.55078125 9.67578125 C-0.57579103 4.99243192 -0.57579103 4.99243192 0 0 Z M2 9 C0.515 12.96 0.515 12.96 -1 17 C1.64 17 4.28 17 7 17 C6.01 14.36 5.02 11.72 4 9 C3.34 9 2.68 9 2 9 Z " fill="#000000" transform="translate(276,155)"/>
<path d="M0 0 C10.89 0 21.78 0 33 0 C33 2.97 33 5.94 33 9 C30 8 30 8 28 5 C24.93443402 4.26656572 24.93443402 4.26656572 22 4 C22.02278381 7.27238031 22.10005764 10.54125903 22.1875 13.8125 C22.19330078 14.74126953 22.19910156 15.67003906 22.20507812 16.62695312 C22.28809702 19.18209034 22.40548676 21.51244655 23 24 C25.3768061 26.15580017 25.3768061 26.15580017 28 27 C28 27.33 28 27.66 28 28 C20.74 28 13.48 28 6 28 C6 27.34 6 26.68 6 26 C7.32 25.34 8.64 24.68 10 24 C10.33 17.4 10.66 10.8 11 4 C4.09524241 5.15551726 4.09524241 5.15551726 2 9 C1.34 9 0.68 9 0 9 C0 6.03 0 3.06 0 0 Z " fill="#000000" transform="translate(378,156)"/>
<path d="M0 0 C0.33 2.97 0.66 5.94 1 9 C-2 8 -2 8 -3.9375 6 C-6.11573864 3.8877686 -7.00636963 3.18143214 -10 3 C-12.85838554 3.74862478 -14.48272754 4.33493541 -16.3125 6.6875 C-17.4904177 10.64958682 -17.52733062 14.37406393 -16.25 18.3125 C-14.61930861 20.51393337 -13.64398578 21.21395017 -11 22 C-6.89924558 21.85354448 -4.72665594 21.61486272 -1.5625 18.9375 C-1.046875 18.298125 -0.53125 17.65875 0 17 C0.66 17.33 1.32 17.66 2 18 C0.03640021 22.65063109 -1.43094656 24.82426027 -6 27 C-11.82100218 27.8086749 -17.21660414 27.84476646 -22.5625 25.3125 C-23.366875 24.549375 -24.17125 23.78625 -25 23 C-25.78375 22.29875 -26.5675 21.5975 -27.375 20.875 C-29.7865049 16.60849133 -29.75202584 12.78840944 -29 8 C-27.26896914 4.33820396 -25.71747942 2.53810956 -22.5 0.125 C-15.27547806 -2.19716777 -7.38735387 -1.34315525 0 0 Z " fill="#000000" transform="translate(353,157)"/>
<path d="M0 0 C7.26 0 14.52 0 22 0 C21.01 0.99 20.02 1.98 19 3 C18.34 3 17.68 3 17 3 C16.85415936 6.22868746 16.76575894 9.45652365 16.6875 12.6875 C16.64560547 13.59951172 16.60371094 14.51152344 16.56054688 15.45117188 C16.54443359 16.33740234 16.52832031 17.22363281 16.51171875 18.13671875 C16.48553467 18.94842529 16.45935059 19.76013184 16.43237305 20.59643555 C16.97981226 23.85590655 16.97981226 23.85590655 22 28 C14.74 28 7.48 28 0 28 C3 25 3 25 5 24 C5.14510162 20.72963272 5.23399373 17.46008993 5.3125 14.1875 C5.35439453 13.25873047 5.39628906 12.32996094 5.43945312 11.37304688 C5.48551062 8.82146139 5.4880582 6.50613552 5 4 C2.64937666 1.83551023 2.64937666 1.83551023 0 1 C0 0.67 0 0.34 0 0 Z " fill="#000000" transform="translate(101,156)"/>
<path d="M0 0 C1.258125 -0.020625 2.51625 -0.04125 3.8125 -0.0625 C4.52019531 -0.07410156 5.22789062 -0.08570312 5.95703125 -0.09765625 C8 0 8 0 11 1 C11 6.28 11 11.56 11 17 C4.4 16.67 -2.2 16.34 -9 16 C-9.33 15.34 -9.66 14.68 -10 14 C-7.63707344 11.47411298 -6.33537489 10.11179163 -3 9 C-1.97718482 6.90280128 -1.97718482 6.90280128 -1.3125 4.4375 C-1.06113281 3.61121094 -0.80976563 2.78492187 -0.55078125 1.93359375 C-0.36902344 1.29550781 -0.18726563 0.65742187 0 0 Z " fill="#000000" transform="translate(364,94)"/>
<path d="M0 0 C7.29846735 4.58275857 16.07281432 11.75805971 18.703125 20.27734375 C18.80109375 20.84582031 18.8990625 21.41429688 19 22 C14.37324343 20.6077541 10.35313769 18.70479016 6.125 16.375 C4.97257812 15.74335937 3.82015625 15.11171875 2.6328125 14.4609375 C1.32957031 13.73777344 1.32957031 13.73777344 0 13 C0 8.71 0 4.42 0 0 Z " fill="#000000" transform="translate(395,103)"/>
</svg>
