<?xml version="1.0" encoding="UTF-8"?>
<svg version="1.1" xmlns="http://www.w3.org/2000/svg" width="1280" height="874">
<path d="M0 0 C4.56404436 1.2399148 6.23384997 3.34911824 8.8203125 7.06640625 C9.76896214 8.350343 10.71956314 9.63283972 11.671875 10.9140625 C12.40905762 11.92170654 12.40905762 11.92170654 13.16113281 12.94970703 C15.73028576 16.38968999 18.4676227 19.68929118 21.1953125 23.00390625 C25.70537295 28.52525338 30.14378201 34.0958058 34.53125 39.71484375 C38.03307497 44.18827333 41.60342414 48.60257827 45.1953125 53.00390625 C49.70291223 58.5273031 54.14373892 64.09575061 58.53125 69.71484375 C62.03307497 74.18827333 65.60342414 78.60257827 69.1953125 83.00390625 C73.70291223 88.5273031 78.14373892 94.09575061 82.53125 99.71484375 C86.03307497 104.18827333 89.60342414 108.60257827 93.1953125 113.00390625 C97.70291223 118.5273031 102.14373892 124.09575061 106.53125 129.71484375 C110.03307497 134.18827333 113.60342414 138.60257827 117.1953125 143.00390625 C121.70291223 148.5273031 126.14373892 154.09575061 130.53125 159.71484375 C134.03307497 164.18827333 137.60342414 168.60257827 141.1953125 173.00390625 C145.70291223 178.5273031 150.14373892 184.09575061 154.53125 189.71484375 C158.03307497 194.18827333 161.60342414 198.60257827 165.1953125 203.00390625 C169.70291223 208.5273031 174.14373892 214.09575061 178.53125 219.71484375 C182.03307497 224.18827333 185.60342414 228.60257827 189.1953125 233.00390625 C193.70291223 238.5273031 198.14373892 244.09575061 202.53125 249.71484375 C206.03307497 254.18827333 209.60342414 258.60257827 213.1953125 263.00390625 C217.70291223 268.5273031 222.14373892 274.09575061 226.53125 279.71484375 C230.03307497 284.18827333 233.60342414 288.60257827 237.1953125 293.00390625 C241.70291223 298.5273031 246.14373892 304.09575061 250.53125 309.71484375 C254.03307497 314.18827333 257.60342414 318.60257827 261.1953125 323.00390625 C265.70291223 328.5273031 270.14373892 334.09575061 274.53125 339.71484375 C278.03307497 344.18827333 281.60342414 348.60257827 285.1953125 353.00390625 C289.70291223 358.5273031 294.14373892 364.09575061 298.53125 369.71484375 C302.03307497 374.18827333 305.60342414 378.60257827 309.1953125 383.00390625 C313.70291223 388.5273031 318.14373892 394.09575061 322.53125 399.71484375 C326.03307497 404.18827333 329.60342414 408.60257827 333.1953125 413.00390625 C337.70291223 418.5273031 342.14373892 424.09575061 346.53125 429.71484375 C350.03307497 434.18827333 353.60342414 438.60257827 357.1953125 443.00390625 C361.70291223 448.5273031 366.14373892 454.09575061 370.53125 459.71484375 C374.03307497 464.18827333 377.60342414 468.60257827 381.1953125 473.00390625 C385.24506863 477.96628348 389.2533506 482.95545404 393.1953125 488.00390625 C398.32688972 494.57562661 403.57686226 501.04747523 408.84765625 507.5078125 C409.33532471 508.10891846 409.82299316 508.71002441 410.32543945 509.3293457 C411.54820281 510.82407638 412.79592251 512.29831138 414.046875 513.76953125 C415.6953125 516.00390625 415.6953125 516.00390625 416.1328125 519.19140625 C415.9884375 520.11953125 415.8440625 521.04765625 415.6953125 522.00390625 C411.96879692 524.48824997 409.10146223 524.2859171 404.78887939 524.26460266 C403.97454461 524.26842821 403.16020982 524.27225376 402.32119823 524.27619523 C399.58288225 524.28654288 396.84477527 524.28252971 394.10644531 524.27856445 C392.14694016 524.28291005 390.1874367 524.28809269 388.22793579 524.29405212 C382.89721586 524.30747229 377.5665667 524.30801726 372.23583317 524.30548882 C367.78759906 524.30442078 363.33937936 524.30929839 358.89114833 524.31409425 C348.39552026 524.32520066 337.89992798 524.32562099 327.40429688 524.31958008 C316.57582907 524.31354335 305.7474913 524.32584108 294.91904569 524.34715015 C285.62552602 524.36476642 276.33204774 524.37076731 267.03851199 524.3675124 C261.4866093 524.36569886 255.93479927 524.36834254 250.38291168 524.38222694 C245.1593642 524.3948004 239.93601919 524.39286563 234.71247482 524.37981606 C232.79646868 524.37744938 230.88044831 524.38018821 228.96445847 524.38843918 C226.34596428 524.39890101 223.72815007 524.39081046 221.10968018 524.37812805 C220.35392677 524.38550234 219.59817336 524.39287662 218.81951833 524.40047437 C212.45895147 524.33580186 207.8835907 522.94069576 203.078125 518.6875 C200.5467274 515.83656533 198.02252875 512.98564722 195.5703125 510.06640625 C195.09513184 509.50284424 194.61995117 508.93928223 194.13037109 508.35864258 C190.30889479 503.79742415 186.61794483 499.14214119 182.96240234 494.44750977 C179.43126505 489.91806329 175.8278147 485.45235885 172.1953125 481.00390625 C167.68753601 475.48065619 163.24688311 469.91205808 158.859375 464.29296875 C155.35755003 459.81953917 151.78720086 455.40523423 148.1953125 451.00390625 C143.68771277 445.4805094 139.24688608 439.91206189 134.859375 434.29296875 C131.35755003 429.81953917 127.78720086 425.40523423 124.1953125 421.00390625 C119.68771277 415.4805094 115.24688608 409.91206189 110.859375 404.29296875 C107.35755003 399.81953917 103.78720086 395.40523423 100.1953125 391.00390625 C95.68771277 385.4805094 91.24688608 379.91206189 86.859375 374.29296875 C83.35755003 369.81953917 79.78720086 365.40523423 76.1953125 361.00390625 C72.1455556 356.04152808 68.13731757 351.05232525 64.1953125 346.00390625 C59.10933405 339.49161208 53.90435111 333.08024255 48.68359375 326.67578125 C45.71114421 323.02849031 42.77231682 319.35526324 39.83984375 315.67578125 C37.59660334 312.88092435 35.33466614 310.10197 33.0703125 307.32421875 C27.94199556 301.03253362 22.86206449 294.71007917 17.87329102 288.30712891 C15.3858094 285.12412987 12.86332514 281.97526917 10.296875 278.85546875 C9.71873047 278.15164063 9.14058594 277.4478125 8.54492188 276.72265625 C7.43314309 275.37290896 6.3175365 274.02630108 5.19726562 272.68359375 C-5.42589869 259.78118089 -5.42589869 259.78118089 -5.43332195 251.67353725 C-5.43815862 250.33925392 -5.43815862 250.33925392 -5.443093 248.97801536 C-5.4415444 247.99981726 -5.4399958 247.02161916 -5.43840027 246.01377869 C-5.44066583 244.97540424 -5.44293138 243.9370298 -5.44526559 242.86718947 C-5.45162016 239.37100253 -5.4507753 235.8748542 -5.44995117 232.37866211 C-5.4529417 229.87903289 -5.45634398 227.37940414 -5.46012878 224.879776 C-5.46806201 218.78543895 -5.47118383 212.69111721 -5.47174116 206.59677642 C-5.47221596 201.64549015 -5.47426889 196.69420708 -5.47744179 191.74292183 C-5.48624871 177.71504377 -5.49086095 163.68717336 -5.49011131 149.65929251 C-5.49007136 148.90281729 -5.4900314 148.14634207 -5.48999023 147.36694336 C-5.48994935 146.60954833 -5.48990847 145.85215331 -5.48986635 145.07180692 C-5.48945958 132.78693535 -5.49903691 120.50209439 -5.5131286 108.21723168 C-5.52747303 95.61296655 -5.5343999 83.00871636 -5.53353482 70.40444285 C-5.53320225 63.32409375 -5.53597596 56.24377675 -5.54671288 49.16343498 C-5.55673858 42.509343 -5.55650243 35.85530747 -5.54919624 29.20120811 C-5.54814518 26.7525701 -5.55054388 24.30392794 -5.5565567 21.85529709 C-5.56420613 18.52579981 -5.559679 15.19654182 -5.55192566 11.86705017 C-5.55706922 10.88662135 -5.56221279 9.90619252 -5.56751221 8.89605373 C-5.56291342 8.00913925 -5.55831462 7.12222478 -5.55357647 6.2084341 C-5.55379384 5.43922805 -5.55401121 4.670022 -5.55423516 3.87750667 C-5.06040218 0.16981538 -3.48199126 0.00411583 0 0 Z " fill="#FF4554" transform="translate(306.3046875,10.99609375)"/>
<path d="M0 0 C2.6875 0.6875 2.6875 0.6875 4.6875 2.6875 C4.939349 4.54893506 4.939349 4.54893506 4.94197559 6.86244392 C4.94780779 7.74279151 4.95363998 8.6231391 4.95964891 9.53016388 C4.95586958 10.50329116 4.95209026 11.47641844 4.94819641 12.47903442 C4.95202196 13.50823749 4.95584751 14.53744056 4.95978898 15.59783161 C4.97016202 19.06934106 4.96611862 22.54068643 4.9621582 26.01220703 C4.96650243 28.4921026 4.9716846 30.97199683 4.97764587 33.45188904 C4.98968397 39.50360769 4.99218293 45.55526112 4.98984561 51.60698576 C4.98806454 56.52726022 4.98980758 61.44752119 4.99407005 66.36779404 C4.99466524 67.06737967 4.99526043 67.7669653 4.99587366 68.48775049 C4.99708539 69.90890258 4.99829952 71.33005466 4.99951603 72.75120674 C5.01040334 86.09254771 5.0082241 99.43386343 5.00213119 112.77520584 C4.99696717 124.97527478 5.00820169 137.17526375 5.02722941 149.37531687 C5.04661433 161.90048384 5.05486226 174.42561299 5.05110615 186.95079505 C5.0491943 193.9832973 5.0516796 201.01573158 5.06582069 208.04822159 C5.07899166 214.66540925 5.07646537 221.28246358 5.06340981 227.89966011 C5.06104164 230.32803844 5.06378727 232.75642798 5.07203293 235.18479347 C5.0824819 238.50140273 5.07441383 241.8174738 5.0617218 245.13406372 C5.06909609 246.09380667 5.07647037 247.05354962 5.08406812 248.04237568 C5.01278716 256.90478227 2.76814581 263.17351502 -3.3125 269.8125 C-4.30689389 270.94207189 -5.29901422 272.07364858 -6.2890625 273.20703125 C-6.7934082 273.78146973 -7.29775391 274.3559082 -7.81738281 274.94775391 C-10.20335733 277.72411811 -12.44540744 280.60710971 -14.6875 283.5 C-18.66705707 288.61473289 -22.7136036 293.66788944 -26.8125 298.6875 C-30.86242045 303.64975211 -34.87024394 308.63927818 -38.8125 313.6875 C-44.41949787 320.86024893 -50.12958604 327.94587861 -55.91308594 334.97705078 C-57.10307569 336.43152883 -58.27606094 337.89989261 -59.4453125 339.37109375 C-60.02023437 340.07363281 -60.59515625 340.77617187 -61.1875 341.5 C-61.63867188 342.06332031 -62.08984375 342.62664062 -62.5546875 343.20703125 C-67.74206402 347.57595503 -73.27648077 348.12561072 -79.76483154 348.06845093 C-80.58948984 348.0731309 -81.41414814 348.07781087 -82.26379609 348.08263266 C-85.0129442 348.09454999 -87.76159082 348.08513843 -90.51074219 348.07568359 C-92.48718048 348.07975062 -94.4636165 348.08509323 -96.44004822 348.09161377 C-101.79715916 348.10527397 -107.15409652 348.09999496 -112.51121044 348.09047651 C-118.11654819 348.08287751 -123.72187114 348.0899258 -129.32720947 348.09463501 C-138.73558216 348.10009004 -148.14388414 348.09290564 -157.55224609 348.07861328 C-168.43768742 348.06226831 -179.32296034 348.06758972 -190.20839763 348.0840925 C-199.5520474 348.09769191 -208.8956464 348.09963517 -218.23930287 348.09177649 C-223.82119208 348.08709391 -229.40300202 348.08649158 -234.98488617 348.09638596 C-240.22818484 348.10503152 -245.47126545 348.09907795 -250.71454048 348.08170319 C-252.64190114 348.07772624 -254.56928006 348.07889292 -256.49663353 348.08549118 C-259.12070704 348.0936487 -261.74407489 348.08345594 -264.36810303 348.06845093 C-265.13667027 348.07514309 -265.90523752 348.08183526 -266.69709468 348.08873022 C-271.81719869 348.03165592 -271.81719869 348.03165592 -274.30560684 346.30260658 C-275.3125 344.6875 -275.3125 344.6875 -275.3671875 342.46484375 C-273.82616412 338.40681551 -271.23487912 335.52892116 -268.4375 332.25 C-267.24116159 330.81465655 -266.04586574 329.37844355 -264.8515625 327.94140625 C-264.2524707 327.22484863 -263.65337891 326.50829102 -263.03613281 325.77001953 C-260.56837915 322.78844181 -258.18692077 319.74354101 -255.8125 316.6875 C-251.33202766 310.94622832 -246.75290384 305.29053006 -242.1484375 299.6484375 C-238.65719917 295.36298382 -235.21431112 291.04420547 -231.8125 286.6875 C-227.3304989 280.94739332 -222.75293443 275.29056754 -218.1484375 269.6484375 C-214.65719917 265.36298382 -211.21431112 261.04420547 -207.8125 256.6875 C-203.3304989 250.94739332 -198.75293443 245.29056754 -194.1484375 239.6484375 C-190.65719917 235.36298382 -187.21431112 231.04420547 -183.8125 226.6875 C-179.87054835 221.6390356 -175.8621258 216.64998538 -171.8125 211.6875 C-165.88784029 204.42417048 -160.07980184 197.07606385 -154.3125 189.6875 C-148.00506755 181.60696795 -141.6300703 173.5910386 -135.14892578 165.64892578 C-131.65742684 161.3633874 -128.2144522 157.04438616 -124.8125 152.6875 C-120.3304989 146.94739332 -115.75293443 141.29056754 -111.1484375 135.6484375 C-107.65719917 131.36298382 -104.21431112 127.04420547 -100.8125 122.6875 C-96.3304989 116.94739332 -91.75293443 111.29056754 -87.1484375 105.6484375 C-83.65719917 101.36298382 -80.21431112 97.04420547 -76.8125 92.6875 C-72.3304989 86.94739332 -67.75293443 81.29056754 -63.1484375 75.6484375 C-59.65719917 71.36298382 -56.21431112 67.04420547 -52.8125 62.6875 C-48.3304989 56.94739332 -43.75293443 51.29056754 -39.1484375 45.6484375 C-35.20294775 40.80539558 -31.32933168 35.91132248 -27.48535156 30.98754883 C-23.35542524 25.71117055 -19.13828313 20.50741581 -14.88256836 15.33203125 C-11.90570056 11.70185777 -9.09705517 8.0152023 -6.375 4.1875 C-3.76727343 0.78188694 -3.76727343 0.78188694 0 0 Z " fill="#FF4554" transform="translate(934.3125,10.3125)"/>
<path d="M0 0 C20.91616153 17.96722596 32.77631198 40.01245749 35.25 67.625 C37.15238805 94.45659815 26.38353067 118.10514414 9.29296875 137.890625 C-7.38576418 155.72809095 -31.21187403 164.35415844 -55.14453125 165.56152344 C-80.3997991 166.17681295 -102.75467588 156.95224032 -121.484375 140.17578125 C-139.86801512 122.43278313 -149.48791755 98.2815369 -150.0625 72.875 C-149.99600491 59.45596591 -147.2439278 46.87563901 -141.75 34.625 C-141.36972656 33.75488281 -140.98945313 32.88476562 -140.59765625 31.98828125 C-132.4017978 14.40995858 -118.38842454 1.09579774 -101.75 -8.375 C-100.87601562 -8.87644531 -100.00203125 -9.37789062 -99.1015625 -9.89453125 C-68.08902807 -26.50480455 -27.21906141 -21.76008531 0 0 Z M-103.875 36.1328125 C-113.45847396 48.97962457 -117.04313663 63.79635288 -115.75 79.625 C-113.31292308 96.3463992 -105.61250119 111.21532166 -92.0859375 121.6875 C-77.32020134 131.55969248 -61.49127934 135.12992071 -44 131.94140625 C-26.81702314 126.96412569 -14.69466181 116.90908232 -5.75 101.625 C1.73279075 85.89475376 3.41710306 70.36571567 -1.75 53.625 C-7.84206734 37.44691231 -18.00196679 25.25985255 -33.75 17.625 C-60.2316047 7.39618197 -85.73787665 14.72833973 -103.875 36.1328125 Z " fill="#FF4554" transform="translate(556.75,692.375)"/>
<path d="M0 0 C1.13425415 -0.00563965 2.2685083 -0.0112793 3.43713379 -0.01708984 C4.68241348 -0.01304138 5.92769318 -0.00899292 7.21070862 -0.00482178 C8.52145355 -0.00832642 9.83219849 -0.01183105 11.18266296 -0.01544189 C14.77978412 -0.02456904 18.37679071 -0.0210201 21.97391391 -0.01468372 C25.73701714 -0.00962435 29.50011049 -0.0143151 33.26321411 -0.01745605 C39.58410912 -0.02109633 45.90495742 -0.01629547 52.22584534 -0.0067749 C59.53366545 0.00410508 66.84137392 0.00058767 74.14919132 -0.01042771 C80.42188359 -0.01950446 86.69454225 -0.02078383 92.96723896 -0.01555037 C96.71429687 -0.0124322 100.46130232 -0.01201705 104.20835686 -0.01862335 C108.38629132 -0.0254745 112.56403347 -0.0159777 116.74195862 -0.00482178 C117.98521408 -0.00887024 119.22846954 -0.0129187 120.50939941 -0.01708984 C122.21501038 -0.00863037 122.21501038 -0.00863037 123.95507812 0 C125.43700732 0.00113108 125.43700732 0.00113108 126.94887447 0.002285 C129.61433788 0.26108494 131.25809284 0.89305441 133.54103088 2.25396729 C133.64027621 7.96477244 133.71267709 13.67507009 133.76075745 19.38653564 C133.78081117 21.32737987 133.80806133 23.26816414 133.8427887 25.20880127 C133.89158263 28.00655961 133.91406215 30.80351573 133.93165588 33.60162354 C133.95230103 34.46231949 133.97294617 35.32301544 133.99421692 36.20979309 C133.99742056 44.90826371 130.1566246 49.89522629 124.47853088 56.31646729 C120.11023872 61.36634215 115.92244028 66.51914064 111.82594299 71.79107666 C107.59966997 77.21636178 103.25380633 82.54047628 98.86769104 87.83721924 C96.12372965 91.17985539 93.64209064 94.45309183 91.54103088 98.25396729 C97.32234167 105.66887491 103.15365846 113.0358764 109.10353088 120.31646729 C113.83254752 126.10613973 118.4239882 131.97577697 122.95509338 137.92193604 C125.86248409 141.70199788 128.89234925 145.37932235 131.91603088 149.06646729 C136.49197235 154.6748274 141.00934067 160.32388035 145.41603088 166.06646729 C145.94631897 166.74233887 146.47660706 167.41821045 147.02296448 168.11456299 C148.27748549 169.76871135 149.42084311 171.50605164 150.54103088 173.25396729 C150.21103088 174.24396729 149.88103088 175.23396729 149.54103088 176.25396729 C144.11512629 176.40289422 138.69042492 176.51145364 133.26295471 176.58355713 C131.41899376 176.61362962 129.57517467 176.65449988 127.73170471 176.706604 C125.07273797 176.77984586 122.41567013 176.81351734 119.75587463 176.83990479 C118.93892624 176.8708725 118.12197784 176.90184021 117.28027344 176.93374634 C111.76925 176.93694713 108.97884766 175.67084589 105.00543213 171.847229 C102.65739466 169.2925752 100.49415936 166.65624906 98.41603088 163.87896729 C97.46687625 162.6409395 96.51629582 161.40400383 95.56446838 160.16802979 C95.07301331 159.52768799 94.58155823 158.88734619 94.07521057 158.2276001 C91.45462453 154.85636879 88.7453179 151.5581405 86.04103088 148.25396729 C81.5345505 142.73369425 77.09432601 137.16857762 72.71168518 131.54962158 C69.70512153 127.70569043 66.64247087 123.91238158 63.54908752 120.13800049 C61.36324905 117.46746926 59.19210669 114.78536397 57.02735901 112.09771729 C56.07397996 110.91507626 55.11723749 109.73513419 54.15626526 108.55865479 C52.9532312 107.07631236 51.77728014 105.57210426 50.60353088 104.06646729 C49.95513245 103.2479126 49.30673401 102.42935791 48.63868713 101.58599854 C47.54103088 99.25396729 47.54103088 99.25396729 48.04493713 96.85162354 C49.90178149 93.62759874 52.07610281 90.75812459 54.41603088 87.87896729 C55.14306213 86.96921143 55.14306213 86.96921143 55.88478088 86.04107666 C57.43150438 84.1076723 58.98617089 82.18083117 60.54103088 80.25396729 C62.0432136 78.37939067 63.54326996 76.50312681 65.04322815 74.62677002 C66.04805043 73.37037365 67.0537584 72.11468514 68.06031799 70.85968018 C71.84362942 66.14044246 75.57972062 61.38588418 79.30421448 56.62017822 C83.59060936 51.15405585 87.97909097 45.77219619 92.39039612 40.40655518 C92.91705872 39.76323242 93.44372131 39.11990967 93.98634338 38.45709229 C94.45572327 37.88635986 94.92510315 37.31562744 95.40870667 36.7276001 C96.62958149 35.23549166 96.62958149 35.23549166 97.54103088 33.25396729 C73.78103088 33.25396729 50.02103088 33.25396729 25.54103088 33.25396729 C25.56423401 43.40920166 25.58743713 53.56443604 25.61134338 64.02740479 C25.62155712 70.44407246 25.63126723 76.86073428 25.63868713 83.27740479 C25.65057014 93.47208663 25.66456518 103.6667355 25.69190979 113.86138916 C25.71181225 121.28497422 25.72473983 128.70853262 25.72920787 136.13214362 C25.7318206 140.06475666 25.73798286 143.9972934 25.752491 147.92988205 C25.76602532 151.6283327 25.77026199 155.32667533 25.76724625 159.02514839 C25.76806229 161.03580728 25.77884557 163.0464543 25.78987122 165.05708313 C25.78712189 166.24622818 25.78437256 167.43537323 25.78153992 168.66055298 C25.7833835 169.69849188 25.78522709 170.73643078 25.78712654 171.80582237 C25.54103088 174.25396729 25.54103088 174.25396729 23.54103088 176.25396729 C20.48414612 176.49688721 20.48414612 176.49688721 16.59962463 176.48443604 C15.91674881 176.48397781 15.23387299 176.48351959 14.53030396 176.48304749 C13.08700319 176.48002619 11.64370566 176.47214351 10.20045471 176.45977783 C7.98378535 176.44151059 5.76753331 176.43926821 3.55079651 176.43951416 C-7.31154444 176.40139197 -7.31154444 176.40139197 -8.45896912 175.25396729 C-8.56259689 173.03104053 -8.5942079 170.80475681 -8.59941101 168.579422 C-8.60238213 167.87352415 -8.60535326 167.16762629 -8.60841441 166.4403376 C-8.61713779 164.05732024 -8.6186127 161.6743529 -8.62010193 159.2913208 C-8.62472749 157.59000541 -8.62975179 155.88869106 -8.63514709 154.18737793 C-8.6482973 149.55315353 -8.654721 144.91894364 -8.65915775 140.28470349 C-8.66208391 137.39296029 -8.6661878 134.5012211 -8.67066193 131.6094799 C-8.68434298 122.57207906 -8.69400699 113.53468733 -8.69786382 104.49727684 C-8.70234799 94.04574621 -8.71990996 83.59434614 -8.74886441 73.14285523 C-8.77043941 65.07662579 -8.78056583 57.01043319 -8.78190494 48.94417518 C-8.78295586 44.12065143 -8.78892447 39.2972503 -8.80672455 34.47375679 C-8.82313343 29.93888527 -8.82539597 25.4042295 -8.81658554 20.86933899 C-8.81581132 19.20117556 -8.8202081 17.53300087 -8.83004379 15.86486626 C-8.84264781 13.59481476 -8.83695063 11.32554085 -8.82646179 9.05549622 C-8.82792835 7.78287713 -8.82939491 6.51025805 -8.83090591 5.19907475 C-8.70816677 4.22718928 -8.58542763 3.25530382 -8.45896912 2.25396729 C-5.08102301 0.00200321 -3.95415855 0.00301915 0 0 Z " fill="#FF4655" transform="translate(628.4589691162109,676.7460327148438)"/>
<path d="M0 0 C1.06347656 -0.020625 2.12695312 -0.04125 3.22265625 -0.0625 C15.63815448 -0.12419192 15.63815448 -0.12419192 20.69677734 4.77099609 C22.34712436 6.6432385 23.86653682 8.57432679 25.375 10.5625 C26.21514648 11.63274414 26.21514648 11.63274414 27.07226562 12.72460938 C28.7690716 14.89029492 30.44740054 17.06942279 32.125 19.25 C33.51221338 21.0240504 34.90463862 22.79389245 36.29785156 24.56323242 C37.18709433 25.69343445 38.07444774 26.82512543 38.95996094 27.95825195 C42.46054159 32.43381383 46.03254551 36.8479783 49.625 41.25 C54.13259973 46.77339685 58.57342642 52.34184436 62.9609375 57.9609375 C66.46276247 62.43436708 70.03311164 66.84867202 73.625 71.25 C77.6747569 76.21237817 81.68299493 81.201581 85.625 86.25 C90.13323413 92.02252679 94.72708267 97.72114292 99.359375 103.39453125 C102.36827778 107.08062954 105.35644016 110.78222922 108.32739258 114.49902344 C109.04067215 115.39119568 109.75395172 116.28336792 110.48884583 117.20257568 C111.0287767 117.87822571 111.56870758 118.55387573 112.125 119.25 C112.12858253 118.35739865 112.12858253 118.35739865 112.13223743 117.44676495 C112.19134429 102.9750207 112.2668665 88.50343123 112.36071491 74.03187084 C112.4057023 67.03355094 112.44511003 60.03528227 112.47143555 53.03686523 C112.49684159 46.28702791 112.53772614 39.53744869 112.58818626 32.78774452 C112.60491234 30.20849746 112.61639071 27.62921101 112.62261391 25.04991722 C112.63219251 21.44603831 112.66017748 17.84274884 112.69262695 14.23901367 C112.69119186 13.16511383 112.68975677 12.09121399 112.6882782 10.98477173 C112.70081635 10.00460587 112.71335449 9.02444 112.72627258 8.01457214 C112.73088155 7.16191363 112.73549051 6.30925512 112.74023914 5.43075848 C113.21211997 2.75621899 113.97307845 1.86407085 116.125 0.25 C118.6652832 -0.12231445 118.6652832 -0.12231445 121.67578125 -0.11328125 C122.76697266 -0.11263672 123.85816406 -0.11199219 124.98242188 -0.11132812 C126.12259766 -0.09521484 127.26277344 -0.07910156 128.4375 -0.0625 C130.13036133 -0.06733398 130.13036133 -0.06733398 131.85742188 -0.07226562 C137.46465285 -0.03596219 141.80588627 0.39417492 147.125 2.25 C147.14832662 24.78912576 147.16597801 47.32824954 147.17681217 69.86738491 C147.18197564 80.33192281 147.18901929 90.79645323 147.20043945 101.26098633 C147.21038476 110.37839435 147.21685306 119.49579696 147.21908849 128.61321026 C147.22039586 133.44393876 147.22348336 138.27465175 147.23073006 143.10537529 C147.23748785 147.64673687 147.23961746 152.18807647 147.23810768 156.7294426 C147.23838412 158.40124569 147.24039066 160.07304948 147.24420547 161.74484825 C147.24913898 164.01725853 147.24799958 166.28958446 147.24525452 168.56199646 C147.24663721 170.47425601 147.24663721 170.47425601 147.24804783 172.42514706 C147.125 175.25 147.125 175.25 146.125 176.25 C141.65711883 176.54153598 137.18344349 176.56412107 132.70727539 176.60009766 C131.20288565 176.61660274 129.69857257 176.64382105 128.19458008 176.68212891 C126.02123501 176.73719879 123.84973226 176.75881918 121.67578125 176.7734375 C120.37294189 176.79325684 119.07010254 176.81307617 117.7277832 176.83349609 C110.78024553 175.70829348 107.13459702 170.35252263 103.0625 164.9375 C102.10419997 163.69037899 101.14450678 162.44432755 100.18359375 161.19921875 C99.68585449 160.55259277 99.18811523 159.9059668 98.67529297 159.23974609 C96.04632168 155.8655546 93.33365041 152.56030532 90.625 149.25 C86.11662029 143.72725141 81.67656032 138.15813865 77.2890625 132.5390625 C73.78723753 128.06563292 70.21688836 123.65132798 66.625 119.25 C62.11740027 113.72660315 57.67657358 108.15815564 53.2890625 102.5390625 C49.7872369 98.06563211 46.21685606 93.65135526 42.625 89.25 C37.63076176 83.12945814 32.71546697 76.95415958 27.85546875 70.7265625 C24.30868069 66.21062349 20.71215381 61.73394227 17.125 57.25 C16.795 79.69 16.465 102.13 16.125 125.25 C14.145 125.745 14.145 125.745 12.125 126.25 C5.35225383 118.91447549 -0.7729634 111.13984099 -6.875 103.25 C-7.83845336 102.01034803 -8.8019943 100.77076412 -9.765625 99.53125 C-10.67746168 98.35445973 -11.58893438 97.17738732 -12.5 96 C-12.92587402 95.45118164 -13.35174805 94.90236328 -13.79052734 94.33691406 C-17.60599437 89.38261888 -18.02027528 86.4064527 -18.00439453 80.25195312 C-18.00614685 79.42582016 -18.00789917 78.59968719 -18.00970459 77.7485199 C-18.0141168 75.00940875 -18.01118732 72.27036184 -18.0078125 69.53125 C-18.00848572 67.63317858 -18.0094559 65.73510725 -18.01071167 63.83703613 C-18.01218779 59.85570455 -18.01003683 55.87439538 -18.00537109 51.89306641 C-17.99967386 46.7815294 -18.00295332 41.6700449 -18.00894356 36.55850983 C-18.01255148 32.63811851 -18.01140951 28.71773971 -18.00881577 24.79734802 C-18.00814714 22.9122263 -18.00897269 21.02710345 -18.01129532 19.14198303 C-18.01382561 16.51064022 -18.00997589 13.87938327 -18.00439453 11.24804688 C-18.00641876 10.46356674 -18.00844299 9.67908661 -18.01052856 8.87083435 C-17.98926418 3.47852836 -17.98926418 3.47852836 -16.875 1.25 C-11.37022347 -0.26880963 -5.66490722 0.0272679 0 0 Z " fill="#FF4655" transform="translate(967.875,676.75)"/>
<path d="M0 0 C0.91910156 0.00515625 1.83820313 0.0103125 2.78515625 0.015625 C7.0532088 0.06503805 11.10351798 0.12889425 15.25 1.25 C16.70697257 4.16394515 16.37937057 6.71302872 16.38371277 9.96887207 C16.38597833 10.66745724 16.38824388 11.36604241 16.39057809 12.08579683 C16.39693297 14.43807384 16.39608778 16.79029346 16.39526367 19.14257812 C16.3982542 20.8243365 16.40165648 22.50609418 16.40544128 24.18785095 C16.41429537 28.7641708 16.41661996 33.34047196 16.41725707 37.91679955 C16.41820489 41.73169227 16.42188164 45.54658061 16.42542917 49.36147165 C16.43357874 58.35768257 16.43601291 67.35388347 16.43530273 76.35009766 C16.43470149 85.64434899 16.44526139 94.93854237 16.4610464 104.23277903 C16.47409997 112.20136493 16.47948757 120.16993183 16.47884732 128.13852835 C16.47859173 132.90276213 16.48147649 137.66694442 16.49202538 142.4311676 C16.50166997 146.90938581 16.50181072 151.3875029 16.49450874 155.86572456 C16.49345841 157.51292124 16.49585214 159.16012409 16.5018692 160.8073101 C16.5095291 163.04870363 16.50498472 165.28974263 16.49723816 167.53112793 C16.49778293 168.78769951 16.49832769 170.04427109 16.49888897 171.33892059 C16.25 174.25 16.25 174.25 14.25 176.25 C9.74554632 176.69734426 5.22598574 176.6642035 0.7019043 176.67553711 C-1.54425097 176.68740359 -3.78763068 176.73653898 -6.03320312 176.78710938 C-7.46613245 176.79657748 -8.89907863 176.80381066 -10.33203125 176.80859375 C-12.28459839 176.82877563 -12.28459839 176.82877563 -14.27661133 176.84936523 C-18.64391431 176.09574685 -19.96241423 174.6154516 -22.75 171.25 C-23.58072021 170.3065271 -23.58072021 170.3065271 -24.42822266 169.34399414 C-24.9185498 168.74707764 -25.40887695 168.15016113 -25.9140625 167.53515625 C-26.47295166 166.85638428 -27.03184082 166.1776123 -27.60766602 165.47827148 C-28.19088623 164.76356689 -28.77410645 164.0488623 -29.375 163.3125 C-29.99109131 162.56105713 -30.60718262 161.80961426 -31.24194336 161.03540039 C-35.43248597 155.90796327 -39.55349065 150.73038896 -43.62207031 145.50585938 C-47.7482252 140.21685142 -51.98373557 135.01943755 -56.24829102 129.84155273 C-59.59481082 125.75591138 -62.72297889 121.57830509 -65.75 117.25 C-69.32400074 120.74073549 -72.66060254 124.36092036 -75.875 128.1875 C-76.35018066 128.75106201 -76.82536133 129.31462402 -77.31494141 129.89526367 C-81.13406882 134.45367852 -84.82260178 139.10619573 -88.47631836 143.79760742 C-92.61281892 149.10278472 -96.84585341 154.32579417 -101.1003418 159.53662109 C-104.87383313 164.1599876 -108.59228887 168.82073026 -112.26171875 173.52734375 C-113.75 175.25 -113.75 175.25 -115.75 176.25 C-118.64341287 176.3734902 -121.51181244 176.43841933 -124.40625 176.453125 C-125.69335876 176.46167511 -125.69335876 176.46167511 -127.00646973 176.47039795 C-128.82217168 176.47985 -130.63789081 176.48638275 -132.45361328 176.49023438 C-135.23890806 176.49996126 -138.02347159 176.53099075 -140.80859375 176.5625 C-142.5703081 176.56902783 -144.33202775 176.57427917 -146.09375 176.578125 C-147.34847107 176.5966452 -147.34847107 176.5966452 -148.62854004 176.61553955 C-150.97460938 176.60644531 -150.97460938 176.60644531 -154.75 176.25 C-155.41 175.26 -156.07 174.27 -156.75 173.25 C-156.15574219 172.54617188 -155.56148438 171.84234375 -154.94921875 171.1171875 C-149.87767628 165.07550549 -144.9203846 158.9653004 -140.0690918 152.74560547 C-136.51728149 148.20171432 -132.89709969 143.71765682 -129.25 139.25 C-123.32520406 131.98678437 -117.51729921 124.63856048 -111.75 117.25 C-105.44256755 109.16946795 -99.0675703 101.1535386 -92.58642578 93.21142578 C-89.09492684 88.9258874 -85.6519522 84.60688616 -82.25 80.25 C-77.7679989 74.50989332 -73.19043443 68.85306754 -68.5859375 63.2109375 C-65.09469917 58.92548382 -61.65181112 54.60670547 -58.25 50.25 C-53.77125341 44.51406139 -49.19918913 38.85949431 -44.59472656 33.22412109 C-41.47780265 29.40167097 -38.40593226 25.55023019 -35.38232422 21.65356445 C-33.19229728 18.83577105 -30.97452238 16.0405916 -28.75 13.25 C-27.96882812 12.26386719 -27.18765625 11.27773438 -26.3828125 10.26171875 C-25.63773438 9.37097656 -24.89265625 8.48023438 -24.125 7.5625 C-23.49335938 6.79550781 -22.86171875 6.02851562 -22.2109375 5.23828125 C-15.7037315 -0.01912804 -8.04266728 -0.18357015 0 0 Z M-18.75 52.25 C-19.70718123 53.29652324 -20.62381081 54.38016905 -21.5234375 55.4765625 C-22.09594238 56.17225342 -22.66844727 56.86794434 -23.25830078 57.5847168 C-23.87431152 58.34051025 -24.49032227 59.09630371 -25.125 59.875 C-25.7526123 60.64175049 -26.38022461 61.40850098 -27.02685547 62.19848633 C-31.01293664 67.08231987 -34.96830152 71.98992116 -38.875 76.9375 C-39.31118652 77.48809082 -39.74737305 78.03868164 -40.19677734 78.60595703 C-42.89772007 82.05264304 -45.36414058 85.58325292 -47.75 89.25 C-47.08355469 90.02601563 -46.41710937 90.80203125 -45.73046875 91.6015625 C-38.0622902 100.57305052 -30.72087417 109.76854216 -23.5390625 119.1328125 C-22.59160156 120.36644531 -22.59160156 120.36644531 -21.625 121.625 C-21.08617187 122.33398438 -20.54734375 123.04296875 -19.9921875 123.7734375 C-19.58226562 124.26070312 -19.17234375 124.74796875 -18.75 125.25 C-18.42 125.25 -18.09 125.25 -17.75 125.25 C-17.75 101.16 -17.75 77.07 -17.75 52.25 C-18.08 52.25 -18.41 52.25 -18.75 52.25 Z " fill="#FF4654" transform="translate(242.75,676.75)"/>
<path d="M0 0 C1.63388672 -0.00386719 1.63388672 -0.00386719 3.30078125 -0.0078125 C4.99267578 0.00378906 4.99267578 0.00378906 6.71875 0.015625 C7.84667969 0.00789062 8.97460938 0.00015625 10.13671875 -0.0078125 C11.22597656 -0.00523437 12.31523438 -0.00265625 13.4375 0 C14.9215332 0.00338379 14.9215332 0.00338379 16.43554688 0.00683594 C23.37986723 0.6525359 26.34101948 4.20884958 30.7109375 9.2421875 C34.31816951 13.59109338 37.80087299 18.02948174 41.265625 22.4921875 C44.35805803 26.46490261 47.53348795 30.36720251 50.71875 34.265625 C55.22670334 39.78872814 59.66718238 45.357477 64.0546875 50.9765625 C67.55651247 55.44999208 71.12686164 59.86429702 74.71875 64.265625 C79.22634973 69.78902185 83.66717642 75.35746936 88.0546875 80.9765625 C91.55651247 85.44999208 95.12686164 89.86429702 98.71875 94.265625 C103.22569318 99.78821735 107.66659455 105.35531272 112.05249023 110.97436523 C115.57250146 115.47226346 119.16731888 119.90548202 122.78125 124.328125 C127.50610864 130.11276502 132.09372377 135.97717594 136.62109375 141.91796875 C139.59582615 145.7854696 142.69115455 149.55267937 145.78125 153.328125 C149.76078511 158.21156804 153.73878133 163.09540178 157.59375 168.078125 C158.68816406 169.47998047 158.68816406 169.47998047 159.8046875 170.91015625 C160.27132812 171.68746094 160.73796875 172.46476563 161.21875 173.265625 C160.88875 174.255625 160.55875 175.245625 160.21875 176.265625 C154.65046969 176.43933549 149.08378291 176.56600215 143.51342773 176.65014648 C141.6208955 176.6852383 139.72855156 176.73292638 137.83666992 176.79370117 C135.10808815 176.87912638 132.38202377 176.91842329 129.65234375 176.94921875 C128.81352158 176.98534775 127.9746994 177.02147675 127.11045837 177.05870056 C122.2620771 177.06190363 119.79620513 176.37801743 116.29370117 172.921875 C115.24142488 171.72661026 114.21447913 170.50839074 113.21875 169.265625 C112.74633377 168.69783325 112.27391754 168.1300415 111.78718567 167.54504395 C110.51807424 165.99937987 109.30355522 164.42056629 108.09375 162.828125 C107.14449295 161.59928313 106.1939168 160.37145938 105.2421875 159.14453125 C104.75073242 158.51047363 104.25927734 157.87641602 103.75292969 157.22314453 C101.12172959 153.86589399 98.41836925 150.56791276 95.71875 147.265625 C87.68692042 137.41958047 79.77807679 127.48093147 72.21875 117.265625 C68.00026061 121.31821874 64.29003918 125.67352404 60.59375 130.203125 C59.97765869 130.95456787 59.36156738 131.70601074 58.72680664 132.48022461 C54.53659609 137.60725542 50.41822459 142.78606251 46.34667969 148.00756836 C42.73164898 152.63674952 39.04960008 157.20889121 35.34375 161.765625 C34.80806396 162.4244165 34.27237793 163.08320801 33.72045898 163.76196289 C32.70384258 165.00949076 31.68544512 166.25556994 30.66503906 167.5 C29.70397584 168.67326287 28.74754977 169.85034018 27.79589844 171.03125 C24.44074574 175.15462713 24.44074574 175.15462713 22.21875 176.265625 C19.8221465 176.36411301 17.455286 176.40550443 15.05859375 176.3984375 C14.35352188 176.39939423 13.64845001 176.40035095 12.92201233 176.40133667 C11.43164989 176.40201729 9.94128448 176.40017121 8.45092773 176.39599609 C6.16187942 176.39063818 3.87302663 176.39594909 1.58398438 176.40234375 C0.1380204 176.4016831 -1.30794346 176.40040222 -2.75390625 176.3984375 C-3.78669456 176.40147385 -3.78669456 176.40147385 -4.84034729 176.40457153 C-9.66629236 176.38058264 -9.66629236 176.38058264 -10.78125 175.265625 C-10.87828132 173.03804243 -10.90311673 170.80731574 -10.90150452 168.57762146 C-10.90235894 167.87031248 -10.90321337 167.16300349 -10.90409368 166.4342609 C-10.90575055 164.04656218 -10.90022377 161.65893257 -10.89477539 159.27124023 C-10.89449354 157.56668093 -10.89465122 155.86212149 -10.8952179 154.15756226 C-10.89550594 149.515197 -10.88960806 144.87285735 -10.88264394 140.23049808 C-10.87641159 135.38446605 -10.8758067 130.53843349 -10.87461853 125.69239807 C-10.87150486 116.50906536 -10.863291 107.3257445 -10.85326904 98.14241701 C-10.842109 87.69035729 -10.83659773 77.23829702 -10.83157361 66.78623283 C-10.82110841 45.27935693 -10.80350829 23.77249171 -10.78125 2.265625 C-6.97733235 0.65672055 -4.1470255 0.00945576 0 0 Z M23.21875 53.265625 C23.21875 76.695625 23.21875 100.125625 23.21875 124.265625 C27.48561751 120.00151464 27.48561751 120.00151464 31.41796875 115.515625 C31.98306152 114.83040771 32.5481543 114.14519043 33.13037109 113.43920898 C33.71641113 112.72192627 34.30245117 112.00464355 34.90625 111.265625 C35.51549316 110.52320557 36.12473633 109.78078613 36.75244141 109.01586914 C42.04608037 102.53668285 47.17861241 95.94322665 52.21875 89.265625 C50.90509784 86.44224164 49.44078388 84.12627627 47.4609375 81.7265625 C46.92146484 81.06833496 46.38199219 80.41010742 45.82617188 79.73193359 C45.25447266 79.04180176 44.68277344 78.35166992 44.09375 77.640625 C42.9137636 76.20337034 41.73407554 74.7658707 40.5546875 73.328125 C39.98202148 72.63203125 39.40935547 71.9359375 38.81933594 71.21875 C36.76361431 68.71024283 34.73815583 66.17842237 32.71875 63.640625 C28.53930987 58.39464241 28.53930987 58.39464241 24.21875 53.265625 C23.88875 53.265625 23.55875 53.265625 23.21875 53.265625 Z " fill="#FF4554" transform="translate(815.78125,676.734375)"/>
<path d="M0 0 C1.1446875 -0.01224609 2.289375 -0.02449219 3.46875 -0.03710938 C5.11230469 -0.04000977 5.11230469 -0.04000977 6.7890625 -0.04296875 C7.7888916 -0.04707764 8.7887207 -0.05118652 9.81884766 -0.05541992 C12.375 0.1875 12.375 0.1875 15.375 2.1875 C15.75976086 4.27644539 15.75976086 4.27644539 15.77372742 6.90774536 C15.78626556 7.90336487 15.79880371 8.89898438 15.8117218 9.92477417 C15.81028671 11.02097076 15.80885162 12.11716736 15.80737305 13.24658203 C15.82266052 14.9734021 15.82266052 14.9734021 15.83825684 16.73510742 C15.86854598 20.55522426 15.87767723 24.37509103 15.88671875 28.1953125 C15.9035536 30.8380518 15.92170219 33.48078303 15.94111633 36.12350464 C15.98483908 42.37787109 16.01335042 48.63221136 16.03643972 54.8866843 C16.06346058 62.00638262 16.10737388 69.12594511 16.15272844 76.24554658 C16.24565727 90.89278484 16.31730019 105.54008117 16.375 120.1875 C17.12809448 119.22763184 17.88118896 118.26776367 18.65710449 117.27880859 C19.65615303 116.00617266 20.65521802 114.73354964 21.65429688 113.4609375 C22.1493573 112.82986084 22.64441772 112.19878418 23.15447998 111.54858398 C26.68185178 107.05640457 30.2526898 102.60354351 33.875 98.1875 C37.92597647 93.22613761 41.93307175 88.23593443 45.875 83.1875 C50.3570011 77.44739332 54.93456557 71.79056754 59.5390625 66.1484375 C63.03030083 61.86298382 66.47318888 57.54420547 69.875 53.1875 C73.81695285 48.13903407 77.8254392 43.15003972 81.875 38.1875 C85.97797492 33.15623381 90.05234702 28.10565126 94.0625 23 C94.72668945 22.15453613 94.72668945 22.15453613 95.40429688 21.29199219 C97.68533422 18.37770662 99.9424909 15.44714419 102.17578125 12.49609375 C102.8560437 11.6002356 102.8560437 11.6002356 103.55004883 10.6862793 C104.40967145 9.55167881 105.26523532 8.41398738 106.1159668 7.27270508 C108.93768359 3.54766055 110.89305614 1.46827175 115.6184082 0.57299805 C121.24900901 -0.00480911 126.8446933 0.00152095 132.50073242 0.00219727 C134.56775017 -0.0000056 136.63424706 -0.01825459 138.70117188 -0.03710938 C140.01021484 -0.03904297 141.31925781 -0.04097656 142.66796875 -0.04296875 C143.8593042 -0.04707764 145.05063965 -0.05118652 146.27807617 -0.05541992 C149.2326416 0.17633354 150.89024769 0.63831929 153.375 2.1875 C151.80841429 7.44016973 148.42049559 11.03313749 144.9375 15.125 C143.65756632 16.65256768 142.37893552 18.18122791 141.1015625 19.7109375 C140.46766602 20.46858398 139.83376953 21.22623047 139.18066406 22.00683594 C136.66633705 25.04333794 134.23164182 28.13748221 131.8125 31.25 C127.89400908 36.27999638 123.90702555 41.24804716 119.875 46.1875 C115.82517933 51.14982244 111.81694806 56.1390402 107.875 61.1875 C103.3929989 66.92760668 98.81543443 72.58443246 94.2109375 78.2265625 C90.71969917 82.51201618 87.27681112 86.83079453 83.875 91.1875 C79.3929989 96.92760668 74.81543443 102.58443246 70.2109375 108.2265625 C66.26082549 113.07527819 62.38219462 117.97472875 58.53466797 122.9050293 C55.08125452 127.31855391 51.55012472 131.66407065 48 136 C43.46620543 141.54033198 39.0696842 147.166387 34.75 152.875 C30.69544718 158.22275207 26.57102861 163.48932742 22.25 168.625 C21.80060059 169.16278076 21.35120117 169.70056152 20.88818359 170.25463867 C18.82587403 172.67466347 17.04547156 174.40718563 14.375 176.1875 C3.815 176.1875 -6.745 176.1875 -17.625 176.1875 C-17.625 118.4375 -17.625 60.6875 -17.625 1.1875 C-11.66530969 -0.00443806 -6.05746094 0.00343393 0 0 Z " fill="#FF4554" transform="translate(17.625,676.8125)"/>
<path d="M0 0 C0.93639313 -0.00708481 1.87278625 -0.01416962 2.83755493 -0.02146912 C4.37580429 -0.01775299 4.37580429 -0.01775299 5.94512939 -0.01396179 C7.02672333 -0.01907272 8.10831726 -0.02418365 9.22268677 -0.02944946 C12.80893443 -0.04338299 16.39499064 -0.04238544 19.98126221 -0.04008484 C22.47127352 -0.04397051 24.96128416 -0.04830491 27.45129395 -0.05307007 C32.67679477 -0.06054096 37.9022459 -0.06037328 43.12774658 -0.05497742 C48.49175215 -0.04961231 53.85556877 -0.05662561 59.21954346 -0.07548523 C65.69396173 -0.09795804 72.16822219 -0.1057353 78.64267731 -0.10181236 C81.10980019 -0.10232556 83.57692681 -0.10756295 86.04402924 -0.11762428 C89.49822396 -0.12997861 92.95188059 -0.12320176 96.40606689 -0.11161804 C97.42346954 -0.11926178 98.44087219 -0.12690552 99.48910522 -0.13478088 C106.30393145 -0.08434012 111.61188624 0.51119116 116.70001221 5.46772766 C117.35485596 6.32753235 118.00969971 7.18733704 118.68438721 8.07319641 C119.42946533 9.04128235 120.17454346 10.00936829 120.94219971 11.00679016 C121.3369751 11.52869934 121.73175049 12.05060852 122.13848877 12.58833313 C123.54585201 14.40454229 125.01015535 16.16249976 126.48907471 17.92085266 C127.51268975 19.15898715 128.53612971 20.39726641 129.55938721 21.63569641 C130.30623779 22.50931824 130.30623779 22.50931824 131.06817627 23.40058899 C132.44219971 25.09663391 132.44219971 25.09663391 134.43438721 28.26069641 C134.10438721 29.91069641 133.77438721 31.56069641 133.43438721 33.26069641 C114.29438721 33.26069641 95.15438721 33.26069641 75.43438721 33.26069641 C75.44486084 37.52153137 75.45533447 41.78236633 75.46612549 46.1723175 C75.49919986 60.21800942 75.52143238 74.26370283 75.53801155 88.30942345 C75.5483346 96.82900855 75.56241452 105.34855682 75.58526611 113.86811829 C75.60516857 121.29170335 75.61809615 128.71526174 75.6225642 136.13887274 C75.62517693 140.07148578 75.63133918 144.00402253 75.64584732 147.93661118 C75.65938164 151.63506183 75.66361832 155.33340446 75.66060257 159.03187752 C75.66141861 161.04253641 75.67220189 163.05318343 75.68322754 165.06381226 C75.68047821 166.25295731 75.67772888 167.44210236 75.67489624 168.6672821 C75.67673983 169.705221 75.67858341 170.7431599 75.68048286 171.8125515 C75.43438721 174.26069641 75.43438721 174.26069641 73.43438721 176.26069641 C70.3616333 176.48774719 70.3616333 176.48774719 66.45782471 176.45600891 C65.77257721 176.45317902 65.08732971 176.45034912 64.38131714 176.44743347 C62.19049694 176.43622923 60.00008405 176.411125 57.80938721 176.38569641 C56.32501811 176.37566689 54.84064261 176.36654099 53.35626221 176.35835266 C49.7155046 176.33628935 46.07498565 176.30175817 42.43438721 176.26069641 C41.11042901 173.61278001 41.31149828 171.63362684 41.31413269 168.6672821 C41.31275803 167.47813705 41.31138336 166.288992 41.30996704 165.06381226 C41.31535995 163.09691689 41.31535995 163.09691689 41.32086182 161.09028625 C41.32114377 159.70084637 41.32098579 158.31140635 41.32041931 156.92196655 C41.32013167 153.1432669 41.32602308 149.36459881 41.33299327 145.58590651 C41.33923228 141.63942085 41.33983104 137.69293453 41.34101868 133.7464447 C41.34413037 126.27019361 41.35234159 118.79395709 41.36236817 111.31771243 C41.37353431 102.80755186 41.37904102 94.2973906 41.3840636 85.78722453 C41.39452433 68.27837339 41.41212065 50.76953644 41.43438721 33.26069641 C40.55781967 33.26735825 40.55781967 33.26735825 39.6635437 33.27415466 C33.59694863 33.31830403 27.53039898 33.34852775 21.46368408 33.37055969 C19.19771472 33.380635 16.9317584 33.39429559 14.66583252 33.41157532 C11.4141722 33.43575652 8.16268333 33.44716404 4.91094971 33.45600891 C3.38433212 33.47149277 3.38433212 33.47149277 1.82687378 33.48728943 C0.8860495 33.48744049 -0.05477478 33.48759155 -1.02410889 33.48774719 C-2.26987198 33.49440903 -2.26987198 33.49440903 -3.540802 33.50120544 C-5.56561279 33.26069641 -5.56561279 33.26069641 -7.56561279 31.26069641 C-7.96317731 27.12461188 -7.89467902 22.98317072 -7.88128662 18.82954407 C-7.87812445 16.76829785 -7.90158982 14.70848401 -7.92694092 12.64741516 C-7.92758545 11.35448547 -7.92822998 10.06155579 -7.92889404 8.72944641 C-7.931875 7.53770813 -7.93485596 6.34596985 -7.93792725 5.11811829 C-7.81506348 4.17516907 -7.69219971 3.23221985 -7.56561279 2.26069641 C-4.39374853 0.14612023 -3.62772105 0.00914816 0 0 Z " fill="#FF4655" transform="translate(1144.5656127929688,676.7393035888672)"/>
<path d="M0 0 C0.928125 -0.01224609 1.85625 -0.02449219 2.8125 -0.03710938 C3.71226562 -0.03904297 4.61203125 -0.04097656 5.5390625 -0.04296875 C6.75263428 -0.04913208 6.75263428 -0.04913208 7.99072266 -0.05541992 C10.375 0.1875 10.375 0.1875 15.375 2.1875 C15.375 49.0475 15.375 95.9075 15.375 144.1875 C39.795 144.1875 64.215 144.1875 89.375 144.1875 C89.705 145.5075 90.035 146.8275 90.375 148.1875 C88.83407042 150.55932299 87.31027044 152.60094493 85.5 154.75 C84.99911865 155.36335205 84.4982373 155.9767041 83.98217773 156.60864258 C82.95306704 157.8666982 81.91876931 159.12052813 80.87939453 160.37011719 C79.49157155 162.04667581 78.12938512 163.73985479 76.77734375 165.4453125 C69.77199569 174.21661642 69.77199569 174.21661642 66.375 176.1875 C63.58194981 176.46769503 61.01630423 176.57736088 58.22583008 176.54394531 C57.40755234 176.54598969 56.5892746 176.54803406 55.74620056 176.55014038 C53.04541578 176.55314515 50.3452433 176.5346842 47.64453125 176.515625 C45.7693446 176.51256742 43.89415567 176.51069129 42.01896667 176.50994873 C38.09238981 176.50534798 34.1660183 176.49092784 30.23950195 176.46875 C25.19517242 176.44040935 20.15100426 176.42953247 15.10660267 176.4250679 C11.2368558 176.4209212 7.36714185 176.41111098 3.49741173 176.39919281 C1.63658602 176.39347918 -0.22424287 176.38872411 -2.08507347 176.38492584 C-4.67811084 176.37808697 -7.27101764 176.36446756 -9.86401367 176.34863281 C-10.63959625 176.34751495 -11.41517883 176.34639709 -12.21426392 176.34524536 C-17.51030976 176.30219024 -17.51030976 176.30219024 -18.625 175.1875 C-18.72422968 172.96221765 -18.7513242 170.73371916 -18.75198364 168.50622559 C-18.75354363 167.79962217 -18.75510362 167.09301875 -18.75671089 166.36500311 C-18.76072325 163.97964278 -18.75753035 161.59434526 -18.75439453 159.20898438 C-18.75574847 157.50604719 -18.75752836 155.80311029 -18.75970459 154.10017395 C-18.76427983 149.46187694 -18.76248899 144.82360206 -18.7593255 140.18530464 C-18.75680237 135.34240787 -18.75913931 130.49951305 -18.76071167 125.65661621 C-18.7625335 117.52221332 -18.7601267 109.38781949 -18.75537109 101.25341797 C-18.74992845 91.83478427 -18.75169109 82.41617222 -18.7571975 72.99753904 C-18.76172824 64.92623061 -18.76237937 56.8549287 -18.75975883 48.7836194 C-18.75819584 43.95626247 -18.75800289 39.12891573 -18.76129532 34.30155945 C-18.76417347 29.76428395 -18.76219938 25.22703648 -18.75640106 20.68976402 C-18.75507316 19.01957432 -18.75546808 17.34938228 -18.75766373 15.6791935 C-18.76037407 13.4090214 -18.75699556 11.13894061 -18.75198364 8.86877441 C-18.75160662 7.59523354 -18.75122959 6.32169266 -18.75084114 5.00955963 C-18.625 2.1875 -18.625 2.1875 -17.625 1.1875 C-11.75584643 0.07220262 -5.9609858 0.00417436 0 0 Z " fill="#FF4554" transform="translate(315.625,676.8125)"/>
</svg>
