<?xml version="1.0" encoding="UTF-8"?>
<svg version="1.1" xmlns="http://www.w3.org/2000/svg" width="512" height="288">
<path d="M0 0 C2.43816585 -0.0809723 4.87364384 -0.14046972 7.3125 -0.1875 C8.34793945 -0.22520508 8.34793945 -0.22520508 9.40429688 -0.26367188 C14.52701924 -0.33791423 14.52701924 -0.33791423 16.63037109 1.16479492 C18.44237119 3.59274585 18.86561954 5.69212811 19.48828125 8.65625 C19.85880615 10.39841797 19.85880615 10.39841797 20.23681641 12.17578125 C20.48866699 13.43777344 20.74051758 14.69976562 21 16 C21.1308197 16.65081543 21.2616394 17.30163086 21.39642334 17.97216797 C22.22294886 22.10215974 23.01603253 26.23774852 23.78979492 30.37792969 C24.19245308 32.52642859 24.60290847 34.67335021 25.01367188 36.8203125 C25.27390716 38.20303669 25.53368982 39.58584616 25.79296875 40.96875 C26.0252417 42.20044922 26.25751465 43.43214844 26.49682617 44.70117188 C26.93024862 47.54270714 27.10488347 50.13522178 27 53 C27.66 53 28.32 53 29 53 C29.04753418 52.39849121 29.09506836 51.79698242 29.14404297 51.17724609 C29.70099482 44.86553133 30.80171914 38.8142621 32.125 32.625 C33.73160936 24.75971438 34.51730095 17.96582998 33 10 C39.42679815 9.63621897 39.42679815 9.63621897 41.61645508 11.02587891 C43.70147573 14.00090573 44.16718129 17.26745889 44.82421875 20.7734375 C44.97534622 21.53419586 45.12647369 22.29495422 45.28218079 23.07876587 C45.59923908 24.68653884 45.91073115 26.29541812 46.21704102 27.90527344 C46.68489983 30.36135013 47.16999795 32.81352035 47.65820312 35.265625 C47.96456383 36.8305294 48.2699351 38.3956279 48.57421875 39.9609375 C48.78977669 41.05648453 48.78977669 41.05648453 49.00968933 42.17416382 C49.70019107 45.82967347 50.16604928 49.27776647 50 53 C50.66 53 51.32 53 52 53 C52.05498657 52.18801147 52.05498657 52.18801147 52.11108398 51.35961914 C52.8386303 42.56701061 54.69872361 33.99713249 56.49145508 25.37426758 C58.8370721 14.28266009 58.8370721 14.28266009 59 3 C58.34 2.01 57.68 1.02 57 0 C58.93719378 -0.05406122 60.87481921 -0.09282025 62.8125 -0.125 C63.89144531 -0.14820313 64.97039062 -0.17140625 66.08203125 -0.1953125 C69 0 69 0 72 2 C73.2159345 5.75606061 72.91876565 8.74538104 72.21142578 12.5847168 C72.01437042 13.67902512 71.81731506 14.77333344 71.61428833 15.90080261 C71.39352631 17.07177994 71.17276428 18.24275726 70.9453125 19.44921875 C70.61380692 21.26266533 70.61380692 21.26266533 70.27560425 23.11274719 C69.80735967 25.66458434 69.33468682 28.21561233 68.85791016 30.76586914 C68.12613214 34.6814422 67.40760522 38.59912919 66.69140625 42.51757812 C66.23514378 44.99493338 65.77813805 47.47215188 65.3203125 49.94921875 C64.99524216 51.71479378 64.99524216 51.71479378 64.66360474 53.51603699 C64.46024506 54.60088882 64.25688538 55.68574066 64.04736328 56.8034668 C63.7796965 58.23978706 63.7796965 58.23978706 63.50662231 59.7051239 C63 62 63 62 62 64 C55.73 64 49.46 64 43 64 C41.68 58.39 40.36 52.78 39 47 C38.01 52.61 37.02 58.22 36 64 C29.73 64 23.46 64 17 64 C14.93853049 56.37124976 13.34307941 48.74489231 11.9140625 40.9765625 C11.72882019 39.98090271 11.54357788 38.98524292 11.35272217 37.95941162 C10.57733756 33.79032185 9.80287477 29.62137425 9.05761719 25.44677734 C8.50598912 22.36995033 7.9308259 19.29829002 7.3515625 16.2265625 C7.10909286 14.82019028 7.10909286 14.82019028 6.86172485 13.38540649 C5.73515547 7.54635866 4.21612337 4.2301217 0 0 Z " fill="#000000" transform="translate(119,158)"/>
<path d="M0 0 C2.06132142 -0.10864945 4.12431321 -0.18588321 6.1875 -0.25 C7.33605469 -0.29640625 8.48460937 -0.3428125 9.66796875 -0.390625 C13.90500404 0.1060966 15.09597285 0.86170229 18 4 C19.2498805 7.47939772 19.8393377 11.03404527 20.45703125 14.671875 C20.64972092 15.70942932 20.84241058 16.74698364 21.04093933 17.815979 C21.65075385 21.12413678 22.23192223 24.43659919 22.8125 27.75 C23.22142848 29.99643657 23.63221419 32.24253591 24.04492188 34.48828125 C25.05151527 39.98845909 26.03465189 45.49244202 27 51 C28.80097755 45.77000265 30.03355187 40.60027423 31.125 35.1875 C31.30675781 34.33607422 31.48851563 33.48464844 31.67578125 32.60742188 C33.23622628 24.90492442 33.5871909 17.73755563 32 10 C38.625 9.75 38.625 9.75 42 12 C42.75195312 14.19213867 42.75195312 14.19213867 43.28125 16.91796875 C43.48210205 17.91892578 43.6829541 18.91988281 43.88989258 19.95117188 C44.09122803 21.01916016 44.29256348 22.08714844 44.5 23.1875 C44.71358154 24.26708984 44.92716309 25.34667969 45.1472168 26.45898438 C45.57517208 28.62707541 45.99800676 30.79618394 46.41552734 32.96630859 C47.06376045 36.33094711 47.73803323 39.68975509 48.41796875 43.0480957 C48.95340914 45.69713402 49.47733203 48.34841616 50 51 C50.33 51 50.66 51 51 51 C52.1709852 45.13097491 53.3282049 39.25946326 54.47290039 33.38525391 C54.86400736 31.38842205 55.2588278 29.39231372 55.6574707 27.39697266 C56.23071769 24.52429672 56.79044105 21.64926052 57.34765625 18.7734375 C57.52780777 17.88570648 57.70795929 16.99797546 57.89356995 16.08334351 C59.02288295 10.1604387 58.92867104 5.78601312 57 0 C58.58294782 -0.05437607 60.16644256 -0.09296271 61.75 -0.125 C63.07257813 -0.15980469 63.07257813 -0.15980469 64.421875 -0.1953125 C67.29358207 0.02224107 68.76475552 0.1574336 71 2 C72.78206908 8.73912942 71.20153969 14.98434435 69.91015625 21.71484375 C69.68678085 22.92572159 69.46340546 24.13659943 69.23326111 25.38417053 C68.52001004 29.23728714 67.79148184 33.08733183 67.0625 36.9375 C66.57391735 39.55492438 66.088822 42.17298005 65.60351562 44.79101562 C64.41392248 51.19622839 63.21062334 57.5987302 62 64 C55.4 64 48.8 64 42 64 C40.68 58.72 39.36 53.44 38 48 C37.01 53.28 36.02 58.56 35 64 C28.73 64 22.46 64 16 64 C15.28682475 60.6676413 14.57861232 57.33438453 13.875 54 C13.54266357 52.42738403 13.54266357 52.42738403 13.20361328 50.82299805 C11.86033298 44.38205755 10.60428547 37.93179877 9.4375 31.45703125 C9.30715363 30.73901337 9.17680725 30.02099548 9.04251099 29.28121948 C8.39728829 25.72401476 7.76257205 22.16545836 7.14404297 18.60351562 C6.90635859 17.28377591 6.66825932 15.96411083 6.4296875 14.64453125 C6.22585449 13.48284424 6.02202148 12.32115723 5.81201172 11.12426758 C4.97956934 7.92139173 3.91928259 5.68363917 2 3 C1.34 2.67 0.68 2.34 0 2 C0 1.34 0 0.68 0 0 Z " fill="#000000" transform="translate(27,75)"/>
<path d="M0 0 C4.58980814 -0.07447267 9.17926014 -0.12875322 13.76953125 -0.16479492 C15.32916394 -0.17982869 16.88875472 -0.20026135 18.44824219 -0.22631836 C20.69737116 -0.26294211 22.94593847 -0.27978021 25.1953125 -0.29296875 C25.8861795 -0.30845261 26.57704651 -0.32393646 27.28884888 -0.33988953 C33.07750974 -0.34187621 36.96244776 1.23779266 41.3125 5 C44.09851156 8.30193962 44.12321084 11.14254862 44.11352539 15.29760742 C44.11344986 16.37850143 44.11337433 17.45939545 44.11329651 18.57304382 C44.10813522 19.73874405 44.10297394 20.90444427 44.09765625 22.10546875 C44.0962413 23.29981033 44.09482635 24.49415192 44.09336853 25.72468567 C44.0877635 29.54564908 44.07521011 33.36655425 44.0625 37.1875 C44.05748565 39.77538978 44.05292263 42.36328048 44.04882812 44.95117188 C44.03779242 51.30080375 44.02052437 57.65039199 44 64 C39.71 64 35.42 64 31 64 C30.67 45.19 30.34 26.38 30 7 C25.38 7 20.76 7 16 7 C16.33 8.32 16.66 9.64 17 11 C17.08544597 12.7714562 17.11774804 14.54582522 17.11352539 16.31933594 C17.11344986 17.38013367 17.11337433 18.4409314 17.11329651 19.53387451 C17.10813522 20.67253967 17.10297394 21.81120483 17.09765625 22.984375 C17.0962413 24.15510559 17.09482635 25.32583618 17.09336853 26.53204346 C17.0877709 30.27138829 17.0752188 34.01067326 17.0625 37.75 C17.0574847 40.28515539 17.05292184 42.82031171 17.04882812 45.35546875 C17.03780223 51.57033557 17.02053919 57.78515763 17 64 C12.71 64 8.42 64 4 64 C3.98541748 62.23889893 3.97083496 60.47779785 3.95581055 58.66333008 C3.90410322 52.83576536 3.83880207 47.00843762 3.76428509 41.18112659 C3.71961336 37.64901334 3.68035062 34.11701456 3.65356445 30.5847168 C3.6225092 26.52102678 3.56772166 22.45795458 3.51171875 18.39453125 C3.50532883 17.1297847 3.4989389 15.86503815 3.49235535 14.56196594 C3.47256119 13.38111923 3.45276703 12.20027252 3.43237305 10.98364258 C3.42126999 9.94661697 3.41016693 8.90959137 3.39872742 7.84114075 C2.94419186 4.60233792 1.84816217 2.66754667 0 0 Z " fill="#000000" transform="translate(381,75)"/>
<path d="M0 0 C10.56 0 21.12 0 32 0 C35.16202087 14.75609741 38.07900778 29.53484509 40.8125 44.375 C40.97106476 45.23281067 41.12962952 46.09062134 41.29299927 46.97442627 C41.74582225 49.42784588 42.1958016 51.88176626 42.64453125 54.3359375 C42.78179626 55.08075378 42.91906128 55.82557007 43.06048584 56.59295654 C44 61.76782797 44 61.76782797 44 64 C39.71 64 35.42 64 31 64 C30.66226563 62.14632812 30.32453125 60.29265625 29.9765625 58.3828125 C29.52645141 55.9634654 29.07590823 53.54419866 28.625 51.125 C28.40328125 49.90167969 28.1815625 48.67835938 27.953125 47.41796875 C27.73398438 46.25136719 27.51484375 45.08476562 27.2890625 43.8828125 C26.99056396 42.26463623 26.99056396 42.26463623 26.68603516 40.61376953 C26.19879355 37.86250888 26.19879355 37.86250888 24 36 C21.10776497 35.53603307 21.10776497 35.53603307 17.875 35.375 C16.77929688 35.30023438 15.68359375 35.22546875 14.5546875 35.1484375 C13.71164063 35.09945312 12.86859375 35.05046875 12 35 C11.35381407 38.70827198 10.70811409 42.41662842 10.0625 46.125 C9.88009766 47.17171875 9.69769531 48.2184375 9.50976562 49.296875 C9.33251953 50.31523437 9.15527344 51.33359375 8.97265625 52.3828125 C8.81031494 53.31496582 8.64797363 54.24711914 8.48071289 55.20751953 C7.97649635 58.13653367 7.48860967 61.06834198 7 64 C2.71 64 -1.58 64 -6 64 C-4.92933699 56.61891409 -3.71049382 49.30506255 -2.2734375 41.98828125 C-2.04312836 40.80925735 -2.04312836 40.80925735 -1.8081665 39.60641479 C-1.17140017 36.35258575 -0.53276543 33.09922257 0.11914062 29.84838867 C3.23929659 16.99164014 3.23929659 16.99164014 3 4 C2.01 2.68 1.02 1.36 0 0 Z M17 6 C15.02 17.385 15.02 17.385 13 29 C16.96 29 20.92 29 25 29 C24.03137596 20.9889094 22.86750338 13.55978164 20 6 C19.01 6 18.02 6 17 6 Z " fill="#000000" transform="translate(199,158)"/>
<path d="M0 0 C5.03534236 -0.0990984 10.07011342 -0.1715758 15.10620117 -0.21972656 C16.81821586 -0.23980505 18.53016228 -0.26707392 20.24194336 -0.30175781 C22.70704008 -0.35044401 25.1712279 -0.37300573 27.63671875 -0.390625 C28.39836838 -0.41127014 29.16001801 -0.43191528 29.94474792 -0.45318604 C33.68491609 -0.45475467 35.78097498 -0.14053729 38.96020508 1.89941406 C43.00467461 6.06441895 42.2543175 10.34378333 42.3125 15.875 C42.34150391 16.78636719 42.37050781 17.69773437 42.40039062 18.63671875 C42.4647003 25.39418181 42.4647003 25.39418181 39.98046875 28.6328125 C39.32691406 29.08398438 38.67335938 29.53515625 38 30 C38.639375 30.763125 39.27875 31.52625 39.9375 32.3125 C42.81226789 36.05840967 43.13144658 38.77744043 43.24609375 43.3671875 C43.27896484 44.41777344 43.31183594 45.46835938 43.34570312 46.55078125 C43.40668258 48.75901583 43.46400091 50.96735468 43.51757812 53.17578125 C43.55173828 54.22894531 43.58589844 55.28210938 43.62109375 56.3671875 C43.6461499 57.32737793 43.67120605 58.28756836 43.69702148 59.27685547 C44.19812276 63.78071013 45.20964493 66.30373482 48.625 69.3125 C49.40875 69.869375 50.1925 70.42625 51 71 C45.65580417 71.33401224 40.59247605 71.01114925 36 68 C30.48867291 62.00094485 31.4820864 55.24690719 31.51171875 47.49804688 C31.42019108 41.12023238 30.85901626 37.16882835 27 32 C24.4091705 30.50886646 24.4091705 30.50886646 22 30 C24.05290548 28.97354726 26.09975903 27.95439587 28.1875 27 C30.17201523 26.12855431 30.17201523 26.12855431 31 24 C31.14867166 21.87856978 31.2213289 19.75144008 31.25 17.625 C31.27578125 16.48289062 31.3015625 15.34078125 31.328125 14.1640625 C30.96446578 10.65734856 30.67212252 9.2935261 28 7 C24.81403338 6.29875226 24.81403338 6.29875226 21.3125 6.25 C20.13300781 6.19328125 18.95351563 6.1365625 17.73828125 6.078125 C16.83464844 6.05234375 15.93101562 6.0265625 15 6 C15.48895752 7.1149585 15.48895752 7.1149585 15.98779297 8.25244141 C17.40962265 13.51657202 17.24595084 18.53305126 17.1953125 23.9609375 C17.1924826 25.10664215 17.18965271 26.2523468 17.18673706 27.43276978 C17.17557135 31.08028755 17.15047299 34.72755685 17.125 38.375 C17.11496555 40.85286103 17.10584051 43.33072592 17.09765625 45.80859375 C17.07564376 51.87249109 17.04113838 57.93620346 17 64 C12.71 64 8.42 64 4 64 C3.97494385 62.26395508 3.9498877 60.52791016 3.92407227 58.73925781 C3.84013336 52.99959821 3.75186893 47.26001386 3.66066074 41.52046585 C3.60552632 38.04101916 3.55212175 34.56156393 3.50268555 31.08203125 C3.44575876 27.08063803 3.38128113 23.07939731 3.31640625 19.078125 C3.29969376 17.83009094 3.28298126 16.58205688 3.26576233 15.29620361 C3.24581711 14.13530212 3.22587189 12.97440063 3.20532227 11.77832031 C3.18977798 10.75683899 3.1742337 9.73535767 3.15821838 8.68292236 C3.01804572 6.30600272 2.67606948 4.27433101 2 2 C1.34 2 0.68 2 0 2 C0 1.34 0 0.68 0 0 Z " fill="#000000" transform="translate(307,75)"/>
<path d="M0 0 C1.91541138 -0.10841951 3.83259773 -0.18578079 5.75 -0.25 C6.81734375 -0.29640625 7.8846875 -0.3428125 8.984375 -0.390625 C12.75672887 0.09802187 13.65254244 1.0707759 16 4 C16.49879456 6.43495178 16.49879456 6.43495178 16.49829102 9.17993164 C16.51334435 10.72657249 16.51334435 10.72657249 16.52870178 12.30445862 C16.52051926 13.41183884 16.51233673 14.51921906 16.50390625 15.66015625 C16.51332748 16.80157578 16.52274872 17.9429953 16.53245544 19.1190033 C16.56115714 22.76701797 16.56418105 26.41438136 16.5625 30.0625 C16.56610047 33.71409402 16.57554928 37.36521401 16.60325623 41.01670837 C16.62012294 43.28924016 16.62285971 45.56192855 16.61024475 47.83448792 C16.61712814 48.86242966 16.62401154 49.8903714 16.63110352 50.94946289 C16.62966087 52.30703453 16.62966087 52.30703453 16.62818909 53.69203186 C17.07426303 56.46097814 17.8165315 57.30054044 20 59 C23.06429776 60.53214888 25.6165642 60.22938548 29 60 C31.31279611 58.84360194 33.17409828 57.82590172 35 56 C35.09845439 54.45590348 35.12798604 52.90733894 35.12939453 51.36010742 C35.13412277 49.87803047 35.13412277 49.87803047 35.13894653 48.36601257 C35.1369223 47.29003311 35.13489807 46.21405365 35.1328125 45.10546875 C35.13376923 44.00656815 35.13472595 42.90766754 35.13571167 41.77546692 C35.13639384 39.44430484 35.13453702 37.11314088 35.13037109 34.78198242 C35.1250386 31.21333532 35.13030698 27.64481496 35.13671875 24.07617188 C35.13605767 21.81510389 35.1347759 19.55403598 35.1328125 17.29296875 C35.13483673 16.22306198 35.13686096 15.15315521 35.13894653 14.05082703 C35.13579437 13.05331924 35.13264221 12.05581146 35.12939453 11.02807617 C35.12859894 10.15173019 35.12780334 9.27538422 35.12698364 8.3724823 C35.00319463 6.05968653 34.84011959 4.16177114 34 2 C33.01 1.67 32.02 1.34 31 1 C31 0.67 31 0.34 31 0 C33.08268593 -0.08126087 35.16628658 -0.13930839 37.25 -0.1875 C38.99023438 -0.23970703 38.99023438 -0.23970703 40.765625 -0.29296875 C44.36640776 0.03318911 45.46994107 0.49429106 48 3 C48.5146637 5.41513062 48.5146637 5.41513062 48.53344727 8.31005859 C48.5492836 9.3948349 48.56511993 10.47961121 48.58143616 11.59725952 C48.57647629 12.76914825 48.57151642 13.94103699 48.56640625 15.1484375 C48.57260483 16.35311676 48.57880341 17.55779602 48.58518982 18.79898071 C48.59229954 21.34937735 48.58909407 23.89982028 48.57641602 26.45019531 C48.56257771 30.35308436 48.59657647 34.25356462 48.63476562 38.15625 C48.63571703 40.63281309 48.63385684 43.10937918 48.62890625 45.5859375 C48.64216446 46.75377777 48.65542267 47.92161804 48.66908264 49.12484741 C48.56551027 58.14142775 48.56551027 58.14142775 45.58129883 61.2043457 C37.50391244 66.82329746 28.5983175 66.76077869 19 66 C13.25500751 64.94878861 7.56937863 62.87137654 4 58 C3.1022859 54.10130073 3.18610719 50.26369255 3.23046875 46.27734375 C3.21913406 45.13971085 3.20779938 44.00207794 3.19612122 42.82997131 C3.16539971 39.19868347 3.17524078 35.5688739 3.1875 31.9375 C3.17332633 28.30303375 3.15093271 24.66871927 3.12532043 21.03431702 C3.11229324 18.77396396 3.10753105 16.51354502 3.11186218 14.25315857 C3.11128311 13.22852005 3.11070404 12.20388153 3.11010742 11.14819336 C3.11266037 10.24838242 3.11521332 9.34857147 3.11784363 8.42149353 C3.00672566 6.13820132 2.64262176 4.18704564 2 2 C1.34 2 0.68 2 0 2 C0 1.34 0 0.68 0 0 Z " fill="#000000" transform="translate(103,75)"/>
<path d="M0 0 C1.91595968 -0.08133791 3.83291932 -0.13934367 5.75 -0.1875 C7.35101563 -0.23970703 7.35101563 -0.23970703 8.984375 -0.29296875 C12.43059572 0.04183249 13.55543944 0.60225017 16 3 C16.45410156 5.36010742 16.45410156 5.36010742 16.390625 8.10546875 C16.37128906 9.57983398 16.37128906 9.57983398 16.3515625 11.08398438 C16.31804687 12.10814453 16.28453125 13.13230469 16.25 14.1875 C16.23195312 15.22326172 16.21390625 16.25902344 16.1953125 17.32617188 C16.14814437 19.88504284 16.08234057 22.44205842 16 25 C17.27617187 24.98839844 18.55234375 24.97679688 19.8671875 24.96484375 C21.53645687 24.95546583 23.20572783 24.94636563 24.875 24.9375 C25.71675781 24.92912109 26.55851562 24.92074219 27.42578125 24.91210938 C28.23144531 24.90888672 29.03710938 24.90566406 29.8671875 24.90234375 C30.98262939 24.89448853 30.98262939 24.89448853 32.12060547 24.88647461 C34 25 34 25 36 26 C36.08115993 22.93696422 36.14057409 19.87609185 36.1875 16.8125 C36.21263672 15.94818359 36.23777344 15.08386719 36.26367188 14.19335938 C36.32065502 9.23582575 36.14153728 6.07529395 33 2 C32.505 1.01 32.505 1.01 32 0 C33.89382164 -0.13592021 35.79049704 -0.2324094 37.6875 -0.3125 C38.74324219 -0.37050781 39.79898438 -0.42851563 40.88671875 -0.48828125 C44.09246541 0.0145021 45.73760679 0.70543814 47.96305847 3.07853699 C50.42097505 7.63308097 49.59081624 13.36939648 49.48828125 18.39453125 C49.48120651 19.69702316 49.47413177 20.99951508 49.46684265 22.34147644 C49.44781513 25.79263884 49.39875439 29.24273739 49.34332275 32.69348145 C49.29203649 36.21933604 49.26930883 39.74536373 49.24414062 43.27148438 C49.19062863 50.18146884 49.10272947 57.09057371 49 64 C45.04 64 41.08 64 37 64 C36.95101562 62.09734375 36.90203125 60.1946875 36.8515625 58.234375 C36.77653073 55.73956858 36.70098308 53.24477763 36.625 50.75 C36.5940625 49.49574219 36.563125 48.24148437 36.53125 46.94921875 C36.47324219 45.14130859 36.47324219 45.14130859 36.4140625 43.296875 C36.3826416 42.18666992 36.3512207 41.07646484 36.31884766 39.93261719 C36.00910263 37.0837219 35.56537517 35.3769224 34 33 C28.60041154 30.30020577 22.02516699 31.37657294 16 31 C16 41.89 16 52.78 16 64 C12.37 64 8.74 64 5 64 C4.98018066 62.4008374 4.96036133 60.8016748 4.93994141 59.15405273 C4.8637274 53.20695558 4.77503393 47.26009804 4.68261719 41.31323242 C4.64439276 38.74199157 4.6095286 36.17069844 4.578125 33.59936523 C4.53233302 29.89808499 4.47436077 26.19716264 4.4140625 22.49609375 C4.40251129 21.35103867 4.39096008 20.20598358 4.37905884 19.02622986 C4.24809763 11.90404415 4.04697622 6.07046433 0 0 Z " fill="#000000" transform="translate(203,75)"/>
<path d="M0 0 C5.61 0 11.22 0 17 0 C18.28359092 3.85077276 19.32021437 7.12257405 20.05322266 11.02392578 C20.23325836 11.97155792 20.41329407 12.91919006 20.5987854 13.89553833 C20.78532684 14.90196381 20.97186829 15.90838928 21.1640625 16.9453125 C21.36099701 17.99274628 21.55793152 19.04018005 21.76083374 20.11935425 C22.17464466 22.3260922 22.58635537 24.5332249 22.99609375 26.74072266 C23.62430344 30.12125166 24.2608948 33.5001264 24.8984375 36.87890625 C25.29998064 39.02594794 25.70103898 41.17308037 26.1015625 43.3203125 C26.2921524 44.33078644 26.48274231 45.34126038 26.67910767 46.38235474 C26.85283905 47.32368256 27.02657043 48.26501038 27.20556641 49.23486328 C27.35941803 50.06059845 27.51326965 50.88633362 27.67178345 51.73709106 C28 54 28 54 28 58 C29.485 57.505 29.485 57.505 31 57 C31.13558823 56.30064835 31.27117645 55.60129669 31.41087341 54.88075256 C32.6870144 48.30219218 33.96684145 41.72436109 35.25085354 35.14733219 C35.91090451 31.76568971 36.56950778 28.38377845 37.22485352 25.0012207 C37.97767748 21.11586507 38.73670676 17.23173473 39.49609375 13.34765625 C39.73154404 12.12788589 39.96699432 10.90811554 40.20957947 9.65138245 C40.42973221 8.53029587 40.64988495 7.40920929 40.87670898 6.25415039 C41.06990219 5.26153702 41.2630954 4.26892365 41.46214294 3.24623108 C42 1 42 1 43 0 C46.66655195 -0.14300125 50.33144219 -0.04216733 54 0 C53.42215511 7.6381883 52.42143615 15.11373487 51.07421875 22.65234375 C50.79092461 24.24617638 50.79092461 24.24617638 50.50190735 25.87220764 C50.10372095 28.09702259 49.70274248 30.32133951 49.29907227 32.54516602 C48.68521327 35.95018425 48.0935678 39.35863416 47.50195312 42.76757812 C47.11073923 44.93774637 46.71820778 47.10767761 46.32421875 49.27734375 C46.15113693 50.2940062 45.97805511 51.31066864 45.79972839 52.35813904 C45.0596733 56.31783353 44.48209781 59.29389188 42.19360352 62.64575195 C39.45237737 64.33808155 37.78839455 64.46196432 34.578125 64.390625 C33.04091797 64.37128906 33.04091797 64.37128906 31.47265625 64.3515625 C30.40917969 64.31804687 29.34570312 64.28453125 28.25 64.25 C27.17105469 64.23195313 26.09210938 64.21390625 24.98046875 64.1953125 C22.31941212 64.14821415 19.66015746 64.082456 17 64 C15.13170443 58.01027991 14.03382559 51.98752757 12.9765625 45.80859375 C12.59177674 43.62553974 12.20634034 41.44260034 11.8203125 39.25976562 C11.21932824 35.841975 10.62262915 32.42365002 10.03710938 29.00317383 C9.46727948 25.68591578 8.87961597 22.37221651 8.2890625 19.05859375 C8.11911774 18.03970566 7.94917297 17.02081757 7.77407837 15.97105408 C6.54675681 9.19170782 4.93735988 4.93735988 0 0 Z " fill="#000000" transform="translate(239,158)"/>
<path d="M0 0 C5.03536777 -0.07432418 10.07041408 -0.12868401 15.10620117 -0.16479492 C16.81817184 -0.1798534 18.53010411 -0.20030455 20.24194336 -0.22631836 C22.70696505 -0.2628319 25.17147535 -0.27975562 27.63671875 -0.29296875 C28.77919319 -0.31619453 28.77919319 -0.31619453 29.94474792 -0.33988953 C34.49226891 -0.34131995 37.40894858 0.14876106 41 3 C43.80163026 7.2024454 43.14489712 10.00104935 43 15 C39.37 15 35.74 15 32 15 C31.54625 13.865625 31.0925 12.73125 30.625 11.5625 C29.42904194 7.95278308 29.42904194 7.95278308 27 7 C24.9625237 6.77141886 22.91959697 6.58975722 20.875 6.4375 C19.23144531 6.31181641 19.23144531 6.31181641 17.5546875 6.18359375 C16.71164062 6.12300781 15.86859375 6.06242187 15 6 C15.32531708 6.7243071 15.65063416 7.4486142 15.98580933 8.19487 C16.99962678 10.99896772 17.24299099 12.92517196 17.22705078 15.88208008 C17.22689972 16.82267776 17.22674866 17.76327545 17.22659302 18.7323761 C17.21627045 19.7346373 17.20594788 20.7368985 17.1953125 21.76953125 C17.1924826 22.80567062 17.18965271 23.84181 17.18673706 24.90934753 C17.17556454 28.21051707 17.15046505 31.51141281 17.125 34.8125 C17.11496643 37.05403253 17.10584124 39.29556933 17.09765625 41.53710938 C17.07563478 47.0248326 17.04218621 52.51239674 17 58 C18.97956441 57.85966889 20.95865141 57.7125877 22.9375 57.5625 C24.03964844 57.48128906 25.14179688 57.40007812 26.27734375 57.31640625 C28.91109903 57.29581916 28.91109903 57.29581916 30 56 C30.28058489 52.04885455 30.23181436 48.08492277 30.25 44.125 C30.270625 43.00996094 30.29125 41.89492187 30.3125 40.74609375 C30.31765625 39.67746094 30.3228125 38.60882813 30.328125 37.5078125 C30.3374707 36.52441895 30.34681641 35.54102539 30.35644531 34.52783203 C29.94823467 31.63289165 29.26517786 30.76953003 27 29 C28.93719378 28.94593878 30.87481921 28.90717975 32.8125 28.875 C33.89144531 28.85179688 34.97039062 28.82859375 36.08203125 28.8046875 C39 29 39 29 42 31 C42.26711404 33.55395487 42.34849029 35.86274374 42.29296875 38.4140625 C42.28872391 39.14370209 42.28447906 39.87334167 42.28010559 40.62509155 C42.26329353 42.95876759 42.22563868 45.2915844 42.1875 47.625 C42.17245634 49.20571671 42.15876738 50.78644693 42.14648438 52.3671875 C42.11338201 56.24512344 42.06158404 60.12241598 42 64 C38.37 64 34.74 64 31 64 C31 63.34 31 62.68 31 62 C30.36191406 62.32226562 29.72382813 62.64453125 29.06640625 62.9765625 C24.97089564 64.34347177 21.22665408 64.36807643 16.9375 64.375 C16.13505859 64.39949219 15.33261719 64.42398438 14.50585938 64.44921875 C13.72919922 64.45308594 12.95253906 64.45695312 12.15234375 64.4609375 C11.45101318 64.46915527 10.74968262 64.47737305 10.02709961 64.48583984 C7.0650287 63.77591318 5.91964937 62.32703462 4 60 C3.50120544 57.46461487 3.50120544 57.46461487 3.50170898 54.57641602 C3.49167343 53.49171524 3.48163788 52.40701447 3.47129822 51.28944397 C3.47948074 50.12271652 3.48766327 48.95598907 3.49609375 47.75390625 C3.48667252 46.55064194 3.47725128 45.34737762 3.46754456 44.10765076 C3.43883621 40.25909447 3.43581863 36.41115487 3.4375 32.5625 C3.43389554 28.71750558 3.42438924 24.87296118 3.39674377 21.02806091 C3.37992474 18.63526611 3.37710336 16.24232303 3.38975525 13.84950256 C3.38287186 12.76164963 3.37598846 11.67379669 3.36889648 10.55297852 C3.36985825 9.5990773 3.37082001 8.64517609 3.37181091 7.66236877 C2.93267205 4.51789518 1.78171407 2.59720173 0 0 Z " fill="#000000" transform="translate(432,75)"/>
<path d="M0 0 C1.28519531 -0.00386719 2.57039063 -0.00773438 3.89453125 -0.01171875 C4.56307129 -0.00543457 5.23161133 0.00084961 5.92041016 0.00732422 C7.9619433 0.02338396 10.00149708 0.00747079 12.04296875 -0.01171875 C13.32816406 -0.00785156 14.61335938 -0.00398437 15.9375 0 C17.11763672 0.00338379 18.29777344 0.00676758 19.51367188 0.01025391 C22.46875 0.3984375 22.46875 0.3984375 24.36523438 1.69287109 C26.15648122 4.46137783 25.64961083 7.20322947 25.46875 10.3984375 C24.80230469 9.74488281 24.13585937 9.09132812 23.44921875 8.41796875 C19.64535263 5.84051294 17.33259053 5.95666338 12.78125 6.0859375 C11.76708008 6.10043945 11.76708008 6.10043945 10.73242188 6.11523438 C6.97342464 6.17795533 6.97342464 6.17795533 3.46875 7.3984375 C3.33315325 9.96272265 3.23441812 12.51978966 3.15625 15.0859375 C3.11435547 15.80716797 3.07246094 16.52839844 3.02929688 17.27148438 C2.94107772 21.13548354 3.05224938 22.85876938 5.4765625 26 C6.95769531 27.18722656 6.95769531 27.18722656 8.46875 28.3984375 C9.08886963 28.91543213 9.70898926 29.43242676 10.34790039 29.96508789 C12.43139257 31.69729795 14.53956032 33.39450131 16.65625 35.0859375 C18.08803792 36.23468275 19.51906294 37.38437971 20.94921875 38.53515625 C21.57723389 39.03748779 22.20524902 39.53981934 22.85229492 40.05737305 C24.46875 41.3984375 24.46875 41.3984375 26.46875 43.3984375 C26.7214103 46.23645902 26.83903432 48.93459529 26.84375 51.7734375 C26.86824219 52.54171875 26.89273438 53.31 26.91796875 54.1015625 C26.92376953 55.21917969 26.92376953 55.21917969 26.9296875 56.359375 C26.93790527 57.03790527 26.94612305 57.71643555 26.95458984 58.41552734 C26.21644788 61.42818516 24.94199524 62.56327845 22.46875 64.3984375 C19.32421875 64.90014648 19.32421875 64.90014648 15.65625 64.89453125 C15.00551514 64.89598648 14.35478027 64.89744171 13.68432617 64.89894104 C12.31261707 64.89728583 10.94088868 64.88576646 9.56933594 64.86499023 C7.47510539 64.8360254 5.38340742 64.84438755 3.2890625 64.85742188 C1.95311275 64.85118389 0.61717097 64.84279247 -0.71875 64.83203125 C-1.92917969 64.82228271 -3.13960938 64.81253418 -4.38671875 64.80249023 C-7.74320618 64.37120245 -9.16154904 63.77103363 -11.53125 61.3984375 C-12.05924676 58.63701447 -11.71723981 56.23478205 -11.53125 53.3984375 C-10.87125 54.7184375 -10.21125 56.0384375 -9.53125 57.3984375 C-2.27125 57.3984375 4.98875 57.3984375 12.46875 57.3984375 C14.04297753 54.24998244 14.13803343 50.80625678 13.46875 47.3984375 C10.39237583 42.56979865 5.97612674 39.57230442 1.40625 36.2734375 C-0.0237328 35.23135514 -1.4521773 34.18715784 -2.87890625 33.140625 C-3.50804932 32.6854248 -4.13719238 32.23022461 -4.78540039 31.76123047 C-9.4147409 28.14761297 -9.4147409 28.14761297 -9.91943359 24.90234375 C-9.92450928 23.44634766 -9.92450928 23.44634766 -9.9296875 21.9609375 C-9.93355469 20.90132812 -9.93742187 19.84171875 -9.94140625 18.75 C-9.92980469 17.64398438 -9.91820312 16.53796875 -9.90625 15.3984375 C-9.91785156 14.29242188 -9.92945313 13.18640625 -9.94140625 12.046875 C-9.93753906 10.98726562 -9.93367188 9.92765625 -9.9296875 8.8359375 C-9.92630371 7.86527344 -9.92291992 6.89460937 -9.91943359 5.89453125 C-9.53125 3.3984375 -9.53125 3.3984375 -8.41455078 1.58349609 C-5.60999007 -0.18126119 -3.29166636 0.00943815 0 0 Z " fill="#000000" transform="translate(357.53125,157.6015625)"/>
<path d="M0 0 C4.92954646 -0.09885708 9.85851647 -0.17146125 14.78881836 -0.21972656 C16.46600392 -0.23984565 18.14311931 -0.26714451 19.82006836 -0.30175781 C22.230482 -0.35026569 24.63996872 -0.37296464 27.05078125 -0.390625 C27.80087967 -0.41127014 28.55097809 -0.43191528 29.32380676 -0.45318604 C34.50361654 -0.45542008 34.50361654 -0.45542008 36.98510742 1.82128906 C38.30353948 4.65162048 38.21021532 6.91684192 38 10 C37.566875 9.525625 37.13375 9.05125 36.6875 8.5625 C34.00238383 6.07628132 31.48653384 5.8760411 27.98828125 5.90234375 C27.23095703 5.90556641 26.47363281 5.90878906 25.69335938 5.91210938 C24.51483398 5.92467773 24.51483398 5.92467773 23.3125 5.9375 C22.11657227 5.94426758 22.11657227 5.94426758 20.89648438 5.95117188 C18.93095743 5.9629415 16.96546915 5.98087652 15 6 C15.33 6.66 15.66 7.32 16 8 C16.09016377 9.60354452 16.11756075 11.21082222 16.11352539 12.81689453 C16.11344986 13.81778107 16.11337433 14.8186676 16.11329651 15.84988403 C16.10813522 16.93325043 16.10297394 18.01661682 16.09765625 19.1328125 C16.0962413 20.23978485 16.09482635 21.3467572 16.09336853 22.48727417 C16.08775772 26.03320993 16.07520337 29.57908323 16.0625 33.125 C16.05748639 35.52473867 16.05292325 37.92447833 16.04882812 40.32421875 C16.03778478 46.21616725 16.0210361 52.10807916 16 58 C19.08469706 57.94802079 22.16661559 57.85292865 25.25 57.75 C26.12269531 57.73582031 26.99539063 57.72164062 27.89453125 57.70703125 C33.15509374 57.55833294 33.15509374 57.55833294 37.609375 54.953125 C38.06828125 54.30859375 38.5271875 53.6640625 39 53 C39.48577482 59.31507264 39.48577482 59.31507264 37.43261719 62.20996094 C34.11064961 64.65442765 31.92437982 64.45777672 27.828125 64.390625 C27.1457074 64.38496521 26.46328979 64.37930542 25.76019287 64.37347412 C23.58940238 64.35115636 21.42028794 64.30097508 19.25 64.25 C17.7747635 64.22992876 16.29950101 64.21167907 14.82421875 64.1953125 C11.21560499 64.1513088 7.60796619 64.08231583 4 64 C3.99413376 63.27194656 3.98826752 62.54389313 3.98222351 61.79377747 C3.92424916 54.92269442 3.85214524 48.0518882 3.76428509 41.18112659 C3.71961336 37.64901334 3.68035062 34.11701456 3.65356445 30.5847168 C3.6225092 26.52102678 3.56772166 22.45795458 3.51171875 18.39453125 C3.50532883 17.1297847 3.4989389 15.86503815 3.49235535 14.56196594 C3.47256119 13.38111923 3.45276703 12.20027252 3.43237305 10.98364258 C3.42126999 9.94661697 3.41016693 8.90959137 3.39872742 7.84114075 C2.94419186 4.60233792 1.84816217 2.66754667 0 0 Z " fill="#000000" transform="translate(300,158)"/>
<path d="M0 0 C4.62642926 -0.07426356 9.25251009 -0.12865492 13.87939453 -0.16479492 C15.45269822 -0.17986364 17.02596002 -0.20032245 18.59912109 -0.22631836 C20.86306096 -0.26278738 23.12644457 -0.27974508 25.390625 -0.29296875 C26.09181458 -0.30845261 26.79300415 -0.32393646 27.51544189 -0.33988953 C30.63324411 -0.34095932 32.70382229 -0.16897318 35.4375 1.390625 C38.17755918 4.21288596 37.75000901 7.18763736 38 11 C37.34 11 36.68 11 36 11 C35.34 9.68 34.68 8.36 34 7 C27.73 7 21.46 7 15 7 C15.33 7.66 15.66 8.32 16 9 C16.09016377 10.60354452 16.11756075 12.21082222 16.11352539 13.81689453 C16.11344986 14.81778107 16.11337433 15.8186676 16.11329651 16.84988403 C16.10813522 17.93325043 16.10297394 19.01661682 16.09765625 20.1328125 C16.0962413 21.23978485 16.09482635 22.3467572 16.09336853 23.48727417 C16.08775772 27.03320993 16.07520337 30.57908323 16.0625 34.125 C16.05748639 36.52473867 16.05292325 38.92447833 16.04882812 41.32421875 C16.03778478 47.21616725 16.0210361 53.10807916 16 59 C18.75230148 58.93990608 21.4992444 58.85287379 24.25 58.75 C25.02730469 58.73582031 25.80460937 58.72164062 26.60546875 58.70703125 C31.43089915 58.533778 31.43089915 58.533778 35.421875 55.953125 C35.94265625 55.30859375 36.4634375 54.6640625 37 54 C37.66 54 38.32 54 39 54 C38.51171875 60.0546875 38.51171875 60.0546875 38 62 C34.27459338 64.48360441 32.36937027 64.2315867 27.92578125 64.1953125 C27.2419487 64.1924826 26.55811615 64.18965271 25.8535614 64.18673706 C23.67302835 64.17555684 21.49290855 64.15045691 19.3125 64.125 C17.83268823 64.11496738 16.35287001 64.10584202 14.87304688 64.09765625 C11.248564 64.07562481 7.62432234 64.04111002 4 64 C3.98969254 63.28225403 3.97938507 62.56450806 3.96876526 61.82501221 C3.87073617 55.05675462 3.76821404 48.28857835 3.66066074 41.52046585 C3.60552632 38.04101916 3.55212175 34.56156393 3.50268555 31.08203125 C3.44575876 27.08063803 3.38128113 23.07939731 3.31640625 19.078125 C3.29969376 17.83009094 3.28298126 16.58205688 3.26576233 15.29620361 C3.24581711 14.13530212 3.22587189 12.97440063 3.20532227 11.77832031 C3.18977798 10.75683899 3.1742337 9.73535767 3.15821838 8.68292236 C3.01804572 6.30600272 2.67606948 4.27433101 2 2 C1.34 2 0.68 2 0 2 C0 1.34 0 0.68 0 0 Z " fill="#000000" transform="translate(262,75)"/>
<path d="M0 0 C1.0759845 -0.00074776 1.0759845 -0.00074776 2.17370605 -0.00151062 C3.68663307 0.0008244 5.19956438 0.01051924 6.71240234 0.02709961 C9.02346667 0.05070176 11.3333769 0.04765546 13.64453125 0.04101562 C15.11719435 0.04659268 16.58985261 0.05370274 18.0625 0.0625 C18.75114136 0.06158859 19.43978271 0.06067719 20.14929199 0.05973816 C23.73215597 0.1124847 26.55673276 0.24978415 29.53125 2.36328125 C30.140625 4.52734375 30.140625 4.52734375 30.28125 6.98828125 C30.33796875 7.80554688 30.3946875 8.6228125 30.453125 9.46484375 C30.47890625 10.09132813 30.5046875 10.7178125 30.53125 11.36328125 C29.87125 11.36328125 29.21125 11.36328125 28.53125 11.36328125 C28.53125 10.70328125 28.53125 10.04328125 28.53125 9.36328125 C24.24125 9.03328125 19.95125 8.70328125 15.53125 8.36328125 C15.53125 26.84328125 15.53125 45.32328125 15.53125 64.36328125 C11.57125 64.36328125 7.61125 64.36328125 3.53125 64.36328125 C3.53125 45.88328125 3.53125 27.40328125 3.53125 8.36328125 C-7.39773075 8.29993956 -7.39773075 8.29993956 -11.46875 11.36328125 C-11.859375 5.40625 -11.859375 5.40625 -11.46875 3.36328125 C-8.0760756 -0.13255597 -4.60123746 -0.061536 0 0 Z " fill="#000000" transform="translate(169.46875,74.63671875)"/>
<path d="M0 0 C1.89382164 -0.13592021 3.79049704 -0.2324094 5.6875 -0.3125 C6.74324219 -0.37050781 7.79898437 -0.42851563 8.88671875 -0.48828125 C12.09246541 0.0145021 13.73760679 0.70543814 15.96305847 3.07853699 C18.42097505 7.63308097 17.59081624 13.36939648 17.48828125 18.39453125 C17.48120651 19.69702316 17.47413177 20.99951508 17.46684265 22.34147644 C17.44781513 25.79263884 17.39875439 29.24273739 17.34332275 32.69348145 C17.29203649 36.21933604 17.26930883 39.74536373 17.24414062 43.27148438 C17.19062863 50.18146884 17.10272947 57.09057371 17 64 C13.04 64 9.08 64 5 64 C4.98541748 62.29948486 4.97083496 60.59896973 4.95581055 58.84692383 C4.90409658 53.21891818 4.83879392 47.59117922 4.76428509 41.96342945 C4.71961929 38.55238536 4.68035533 35.14145964 4.65356445 31.73022461 C4.62250194 27.80556851 4.56771382 23.88141399 4.51171875 19.95703125 C4.50532883 18.73603226 4.4989389 17.51503326 4.49235535 16.2570343 C4.47256119 15.1162291 4.45276703 13.97542389 4.43237305 12.80004883 C4.42126999 11.79855301 4.41016693 10.79705719 4.39872742 9.76521301 C3.93538497 6.55188852 2.80954135 4.66632625 1 2 C0.67 1.34 0.34 0.68 0 0 Z " fill="#000000" transform="translate(357,75)"/>
<path d="M0 0 C3.96 0 7.92 0 12 0 C12 4.62 12 9.24 12 14 C11.34 14 10.68 14 10 14 C9.78085937 13.46890625 9.56171875 12.9378125 9.3359375 12.390625 C6.97739855 7.13664393 4.92312189 4.90911748 0 2 C0 1.34 0 0.68 0 0 Z " fill="#000000" transform="translate(283,101)"/>
<path d="M0 0 C3.96 0 7.92 0 12 0 C12 4.62 12 9.24 12 14 C10 13 10 13 8.8125 10.3125 C6.80256715 6.63917445 4.66498085 4.75436377 1.42578125 2.19921875 C0.95527344 1.80347656 0.48476563 1.40773437 0 1 C0 0.67 0 0.34 0 0 Z " fill="#000000" transform="translate(321,184)"/>
</svg>
