<?xml version="1.0" encoding="UTF-8"?>
<svg version="1.1" xmlns="http://www.w3.org/2000/svg" width="187" height="251">
<path d="M0 0 C31.02 0 62.04 0 94 0 C97.95847287 18.47287341 97.95847287 18.47287341 93.71484375 25.40234375 C93.26689453 26.14677734 92.81894531 26.89121094 92.35742188 27.65820312 C91.88884766 28.41037109 91.42027344 29.16253906 90.9375 29.9375 C90.22883789 31.10635742 90.22883789 31.10635742 89.50585938 32.29882812 C88.34773766 34.20563458 87.17530093 36.10373407 86 38 C91.28 38 96.56 38 102 38 C103.06029063 42.05845707 104.09871177 46.12044076 105.125 50.1875 C105.57939453 51.91323242 105.57939453 51.91323242 106.04296875 53.67382812 C106.32011719 54.78564453 106.59726563 55.89746094 106.8828125 57.04296875 C107.14465332 58.06414795 107.40649414 59.08532715 107.67626953 60.13745117 C108.05083059 63.44946358 107.47790502 65.05162908 106 68 C105.50242187 69.02738281 105.00484375 70.05476563 104.4921875 71.11328125 C103.95851563 72.16902344 103.42484375 73.22476563 102.875 74.3125 C102.33617187 75.38113281 101.79734375 76.44976562 101.2421875 77.55078125 C100.83226562 78.35902344 100.42234375 79.16726562 100 80 C100.66 79.67 101.32 79.34 102 79 C103.70702735 78.93003986 105.41668003 78.91559846 107.125 78.9375 C108.49011719 78.95103516 108.49011719 78.95103516 109.8828125 78.96484375 C110.58148438 78.97644531 111.28015625 78.98804687 112 79 C112.64730804 81.56213554 113.29289288 84.12468485 113.9375 86.6875 C114.11990234 87.40873047 114.30230469 88.12996094 114.49023438 88.87304688 C115.41837853 92.56874814 116.29191677 96.25443826 117 100 C117.2475 101.216875 117.495 102.43375 117.75 103.6875 C117.71344076 106.92299318 117.04031551 107.95286532 114.8984375 110.45703125 C112.01840267 113.09773925 109.0570308 115.56677396 106 118 C105.11699219 118.72703125 104.23398438 119.4540625 103.32421875 120.203125 C100.90793541 122.17222682 98.47145952 124.10060297 96 126 C95.45589478 126.47455124 94.91178955 126.94910248 94.35119629 127.43803406 C89.07136719 131.82197326 84.68582617 133.1436516 77.94921875 133.94140625 C76.98883194 134.07498032 76.02844513 134.20855438 75.03895569 134.34617615 C71.92437481 134.77419891 68.80657416 135.16869017 65.6875 135.5625 C63.53452735 135.85126259 61.38185818 136.14229663 59.22949219 136.43554688 C54.89504477 137.02375413 50.55927421 137.60020538 46.22216797 138.16845703 C40.53641142 138.91955076 34.86285261 139.73803395 29.19140625 140.58984375 C27.5674645 140.83195193 25.94352245 141.07405812 24.31958008 141.31616211 C22.05284085 141.65462367 19.78636504 141.99446408 17.52059937 142.33938599 C15.46785973 142.65023829 13.41391649 142.95132629 11.359375 143.25 C10.21952148 143.42015625 9.07966797 143.5903125 7.90527344 143.765625 C5.24726488 143.98005258 3.49842938 143.85260235 1 143 C0.18003143 139.68828227 -0.43387788 136.36415016 -1 133 C-1.31517578 131.18628906 -1.31517578 131.18628906 -1.63671875 129.3359375 C-3.0473753 117.89269155 0.08948746 110.72583246 6 101 C2.37 101 -1.26 101 -5 101 C-8.30861998 84.71859886 -7.56829761 75.24568162 -1 60 C-4.3 60 -7.6 60 -11 60 C-17.11951152 38.02740611 -9.86752821 19.73505642 0 0 Z " fill="#020202" transform="translate(44,30)"/>
<path d="M0 0 C27.06 0 54.12 0 82 0 C84.04166271 4.08332543 83.64679556 8.57805833 83 13 C81.1617606 17.4536622 78.65910863 21.38919203 76.0625 25.4375 C75.33793983 26.60643074 74.61582046 27.77687749 73.89599609 28.94873047 C72.38651951 31.39883413 70.86432692 33.84029147 69.33154297 36.27587891 C67.01890829 39.95747936 64.75460784 43.66700653 62.50390625 47.38671875 C62.13879944 47.99011581 61.77369263 48.59351288 61.39752197 49.2151947 C60.66759234 50.42198616 59.93781411 51.6288692 59.20819092 52.83584595 C58.13330407 54.6112838 57.0549022 56.38453179 55.97509766 58.15698242 C50.55665283 67.05170541 45.24788001 76.00363428 40 85 C45.94 85 51.88 85 58 85 C58.66 83.35 59.32 81.7 60 80 C60.98740789 78.07389272 62.00260881 76.16188384 63.0390625 74.26171875 C63.61914062 73.19501953 64.19921875 72.12832031 64.796875 71.02929688 C65.40015625 69.92650391 66.0034375 68.82371094 66.625 67.6875 C67.23601562 66.56537109 67.84703125 65.44324219 68.4765625 64.28710938 C69.98191092 61.52338376 71.48980241 58.76107794 73 56 C69.37 56 65.74 56 62 56 C67.39520691 42.51198273 67.39520691 42.51198273 73 39 C79.21808368 37.5113317 85.71376669 38.30934568 92 39 C92.51160079 40.68401926 93.00868059 42.37245222 93.5 44.0625 C93.7784375 45.00222656 94.056875 45.94195312 94.34375 46.91015625 C95.65284257 53.07380044 95.17558624 57.5219985 92.375 63.15234375 C91.83359375 64.25771484 91.2921875 65.36308594 90.734375 66.50195312 C89.87585938 68.20254883 89.87585938 68.20254883 89 69.9375 C88.42765625 71.09830078 87.8553125 72.25910156 87.265625 73.45507812 C85.85604009 76.30948758 84.42965198 79.15558826 83 82 C91.415 81.505 91.415 81.505 100 81 C103 93.625 103 93.625 103 97 C94.85785034 98.44143047 86.728804 99.56102129 78.5078125 100.4375 C77.35940887 100.56310303 76.21100525 100.68870605 75.02780151 100.81811523 C71.39387423 101.21527857 67.75949295 101.60804962 64.125 102 C59.33562629 102.51801211 54.54654503 103.03859308 49.7578125 103.5625 C48.62063782 103.68657227 47.48346313 103.81064453 46.31182861 103.93847656 C39.4120079 104.70166071 32.5494305 105.56459355 25.69482422 106.66796875 C22.77278731 107.02799504 19.94120029 107.05646757 17 107 C16.46429995 104.64836759 15.94632171 102.29496652 15.4375 99.9375 C15.28603516 99.28072266 15.13457031 98.62394531 14.97851562 97.94726562 C13.28109687 89.93387009 14.80474748 84.68934589 19.20703125 77.875 C19.75746094 77.05 20.30789062 76.225 20.875 75.375 C21.95597534 73.71630624 23.03671164 72.05745667 24.1171875 70.3984375 C24.59784668 69.67317871 25.07850586 68.94791992 25.57373047 68.20068359 C27.10604795 65.83637175 28.55043915 63.41593475 30 61 C23.07 60.67 16.14 60.34 9 60 C6.06223637 40.53731592 6.06223637 40.53731592 9.9921875 35.14453125 C10.61480469 34.27505859 11.23742188 33.40558594 11.87890625 32.50976562 C12.86697266 31.17461914 12.86697266 31.17461914 13.875 29.8125 C14.85146484 28.45995117 14.85146484 28.45995117 15.84765625 27.08007812 C17.05453817 25.40910655 18.26730447 23.74235807 19.48779297 22.08129883 C20.69806946 20.41555664 21.85787429 18.71318857 23 17 C15.74 16.67 8.48 16.34 1 16 C0 9 0 9 0 0 Z " fill="#FAFAFA" transform="translate(51,35)"/>
<path d="M0 0 C1.37478516 0.01740234 1.37478516 0.01740234 2.77734375 0.03515625 C3.69644531 0.04417969 4.61554688 0.05320313 5.5625 0.0625 C6.27277344 0.07410156 6.98304687 0.08570313 7.71484375 0.09765625 C6.18397085 5.58255516 3.56654787 10.07513301 0.65234375 14.91015625 C0.19279297 15.68552734 -0.26675781 16.46089844 -0.74023438 17.25976562 C-4.12012987 22.93262987 -4.12012987 22.93262987 -5.28515625 24.09765625 C-7.47155078 24.17024571 -9.66016014 24.18139408 -11.84765625 24.16015625 C-13.64396484 24.14662109 -13.64396484 24.14662109 -15.4765625 24.1328125 C-16.40339844 24.12121094 -17.33023438 24.10960938 -18.28515625 24.09765625 C-16.85134485 21.06497492 -15.17917129 18.35010587 -13.28125 15.5859375 C-12.70568359 14.74611328 -12.13011719 13.90628906 -11.53710938 13.04101562 C-10.63895508 11.73874023 -10.63895508 11.73874023 -9.72265625 10.41015625 C-8.81870117 9.09047852 -8.81870117 9.09047852 -7.89648438 7.74414062 C-2.65442027 0.11343676 -2.65442027 0.11343676 0 0 Z " fill="#090909" transform="translate(98.28515625,50.90234375)"/>
<path d="M0 0 C0.5 2.5625 0.5 2.5625 0 6 C-2.41995038 8.65876127 -5.13443598 10.83803429 -8 13 C-5.36 13.33 -2.72 13.66 0 14 C0 15.65 0 17.3 0 19 C-5.94 19 -11.88 19 -18 19 C-18 14 -18 14 -16.25 11.98046875 C-15.5075 11.38878906 -14.765 10.79710937 -14 10.1875 C-13.2575 9.58292969 -12.515 8.97835937 -11.75 8.35546875 C-11.1725 7.90816406 -10.595 7.46085938 -10 7 C-12.97 6.67 -15.94 6.34 -19 6 C-18.67 4.35 -18.34 2.7 -18 1 C-11.96445452 0.30739642 -6.07593562 -0.11251733 0 0 Z " fill="#000000" transform="translate(143,193)"/>
<path d="M0 0 C0.5 2.5625 0.5 2.5625 0 6 C-2.41995038 8.65876127 -5.13443598 10.83803429 -8 13 C-5.36 13.33 -2.72 13.66 0 14 C0 15.65 0 17.3 0 19 C-5.94 19 -11.88 19 -18 19 C-18 14 -18 14 -16.25 11.98046875 C-15.5075 11.38878906 -14.765 10.79710937 -14 10.1875 C-13.2575 9.58292969 -12.515 8.97835937 -11.75 8.35546875 C-11.1725 7.90816406 -10.595 7.46085938 -10 7 C-12.97 6.67 -15.94 6.34 -19 6 C-18.67 4.35 -18.34 2.7 -18 1 C-11.96445452 0.30739642 -6.07593562 -0.11251733 0 0 Z " fill="#000000" transform="translate(62,193)"/>
<path d="M0 0 C0.36795695 3.2828659 0.3231932 4.58663012 -1.75 7.23828125 C-2.4925 7.92277344 -3.235 8.60726562 -4 9.3125 C-4.7425 10.00988281 -5.485 10.70726562 -6.25 11.42578125 C-6.8275 11.94527344 -7.405 12.46476563 -8 13 C-5.69 13.33 -3.38 13.66 -1 14 C-1 15.65 -1 17.3 -1 19 C-6.61 19 -12.22 19 -18 19 C-18 13 -18 13 -16.46875 11.1015625 C-15.8190625 10.61429688 -15.169375 10.12703125 -14.5 9.625 C-13.8503125 9.12226563 -13.200625 8.61953125 -12.53125 8.1015625 C-11.77328125 7.55628906 -11.77328125 7.55628906 -11 7 C-13.64 6.67 -16.28 6.34 -19 6 C-19 4.35 -19 2.7 -19 1 C-12.63849395 0.34513908 -6.39628979 -0.12068471 0 0 Z " fill="#000000" transform="translate(103,193)"/>
<path d="M0 0 C8.25 0 16.5 0 25 0 C25 1.65 25 3.3 25 5 C16.75 5 8.5 5 0 5 C0 3.35 0 1.7 0 0 Z " fill="#000000" transform="translate(90,220)"/>
<path d="M0 0 C5.94 0 11.88 0 18 0 C18 1.65 18 3.3 18 5 C12.06 5 6.12 5 0 5 C0 3.35 0 1.7 0 0 Z " fill="#000000" transform="translate(44,220)"/>
<path d="M0 0 C0.66 0 1.32 0 2 0 C2 0.99 2 1.98 2 3 C3.32 3 4.64 3 6 3 C6 2.01 6 1.02 6 0 C9.96 0 13.92 0 18 0 C18 1.65 18 3.3 18 5 C12.06 5 6.12 5 0 5 C0 3.35 0 1.7 0 0 Z " fill="#000000" transform="translate(63,220)"/>
<path d="M0 0 C3.96 0 7.92 0 12 0 C12 1.65 12 3.3 12 5 C8.04 5 4.08 5 0 5 C0 3.35 0 1.7 0 0 Z " fill="#000000" transform="translate(118,220)"/>
<path d="M0 0 C1.65 0 3.3 0 5 0 C5 1.65 5 3.3 5 5 C4.01 5.33 3.02 5.66 2 6 C1.01 5.34 0.02 4.68 -1 4 C-0.67 2.68 -0.34 1.36 0 0 Z " fill="#000000" transform="translate(111,200)"/>
<path d="M0 0 C1.98 0 3.96 0 6 0 C6 1.65 6 3.3 6 5 C4.02 5 2.04 5 0 5 C0 3.35 0 1.7 0 0 Z " fill="#000000" transform="translate(137,220)"/>
<path d="M0 0 C1.65 0.33 3.3 0.66 5 1 C4.625 2.9375 4.625 2.9375 4 5 C3.01 5.495 3.01 5.495 2 6 C1.01 5.34 0.02 4.68 -1 4 C-0.67 2.68 -0.34 1.36 0 0 Z " fill="#000000" transform="translate(71,200)"/>
<path d="M0 0 C1.65 0 3.3 0 5 0 C5 1.65 5 3.3 5 5 C3.35 5 1.7 5 0 5 C0 3.35 0 1.7 0 0 Z " fill="#000000" transform="translate(82,220)"/>
<path d="M0 0 C1.65 0 3.3 0 5 0 C5 0.66 5 1.32 5 2 C4.01 2 3.02 2 2 2 C2 2.99 2 3.98 2 5 C1.34 5 0.68 5 0 5 C0 3.35 0 1.7 0 0 Z " fill="#000000" transform="translate(131,220)"/>
</svg>
